<?xml version="1.0" encoding="UTF-8" standalone="no"?>
<!DOCTYPE svg PUBLIC "-//W3C//DTD SVG 1.1//EN" "http://www.w3.org/Graphics/SVG/1.1/DTD/svg11.dtd">
<svg width="600.00" height="600.00" viewBox="0.00 0.00 2500.00 2500.00" xmlns="http://www.w3.org/2000/svg" xmlns:xlink="http://www.w3.org/1999/xlink">
<g stroke-linecap="round" id="Layer_2_Copy_5">
<path d="M2052.75,512.89 C2047.52,510.33 2033.79,503.81 2028.66,501.63 C2022.23,498.98 2009.54,493.88 1998.56,490.33 C1987.69,487.01 1955.66,478.60 1939.23,474.81 C1921.73,471.21 1889.85,465.73 1873.78,463.37 C1857.27,461.24 1826.42,457.50 1812.09,455.89 C1790.58,454.03 1763.63,452.99 1749.03,452.95 C1738.88,453.07 1703.41,454.92 1687.51,456.18 C1671.84,457.78 1641.11,462.26 1625.69,465.01 C1606.07,468.95 1578.66,475.86 1562.55,480.43 C1541.48,486.74 1518.12,494.97 1505.13,500.69 C1494.12,505.85 1461.13,523.98 1450.77,530.40 C1441.77,536.23 1431.49,543.67 1425.33,548.40 C1418.09,554.25 1407.89,563.20 1402.43,568.50 C1396.97,573.96 1386.20,586.14 1380.99,592.68 C1376.19,599.02 1365.28,613.76 1363.96,615.75 C1358.65,623.78 1352.46,637.57 1351.11,641.15 C1347.24,651.43 1343.97,661.15 1342.42,668.06 C1340.95,674.73 1339.08,687.87 1338.72,695.50 C1338.38,703.16 1338.96,715.71 1340.02,723.38 C1341.09,731.06 1344.30,744.39 1346.55,751.38 C1348.58,757.65 1354.66,772.29 1358.15,779.27 C1360.65,784.24 1369.05,797.94 1372.89,803.80 C1375.20,807.27 1385.15,820.68 1390.25,826.23 C1393.56,829.83 1407.38,843.18 1413.61,849.05 C1419.79,854.65 1431.79,865.09 1438.14,869.82 C1447.56,876.82 1484.62,898.88 1489.01,901.26 C1503.03,908.77 1522.37,917.31 1540.80,924.55 C1555.76,930.25 1591.13,942.48 1602.51,945.77 C1617.70,949.86 1648.38,956.89 1663.81,959.98 C1679.30,962.82 1709.71,967.44 1725.19,969.43 C1740.70,971.19 1771.44,973.93 1786.79,974.85 C1802.24,975.54 1832.97,976.18 1848.19,976.36 C1858.91,976.32 1896.26,974.88 1912.40,974.07 C1927.25,973.09 1956.61,970.78 1971.11,969.45 C1985.56,967.80 2017.27,963.10 2032.51,960.64 C2048.91,957.67 2081.60,951.44 2097.90,948.17 C2112.94,944.84 2147.85,935.90 2163.33,931.35 C2170.19,929.21 2183.01,925.08 2188.97,923.09 C2200.66,918.87 2212.89,913.52 2219.00,910.28 C2222.96,908.13 2226.92,905.50 2229.89,902.74 C2233.39,899.31 2233.62,898.91 2233.48,898.35" fill="none" stroke="rgb(255, 198, 0)" stroke-width="96.06" stroke-opacity="1.00" stroke-linejoin="round"/>
<path d="M447.25,512.89 C452.48,510.33 466.21,503.81 471.34,501.63 C477.77,498.98 490.46,493.88 501.44,490.33 C512.31,487.01 544.34,478.60 560.77,474.81 C578.27,471.21 610.15,465.73 626.22,463.37 C642.73,461.24 673.58,457.50 687.91,455.89 C709.42,454.03 736.37,452.99 750.97,452.95 C761.12,453.07 796.59,454.92 812.49,456.18 C828.16,457.78 858.89,462.26 874.31,465.01 C893.93,468.95 921.34,475.86 937.45,480.43 C958.52,486.74 981.88,494.97 994.87,500.69 C1005.88,505.85 1038.87,523.98 1049.23,530.40 C1058.23,536.23 1068.51,543.67 1074.67,548.40 C1081.91,554.25 1092.11,563.20 1097.57,568.50 C1103.03,573.96 1113.80,586.14 1119.01,592.68 C1123.81,599.02 1134.72,613.76 1136.04,615.75 C1141.35,623.78 1147.54,637.57 1148.89,641.15 C1152.76,651.43 1156.03,661.15 1157.58,668.06 C1159.05,674.73 1160.92,687.87 1161.28,695.50 C1161.62,703.16 1161.04,715.71 1159.98,723.38 C1158.91,731.06 1155.70,744.39 1153.45,751.38 C1151.42,757.65 1145.34,772.29 1141.85,779.27 C1139.35,784.24 1130.95,797.94 1127.11,803.80 C1124.80,807.27 1114.85,820.68 1109.75,826.23 C1106.44,829.83 1092.62,843.18 1086.39,849.05 C1080.21,854.65 1068.21,865.09 1061.86,869.82 C1052.44,876.82 1015.38,898.88 1010.99,901.26 C996.97,908.77 977.63,917.31 959.20,924.55 C944.24,930.25 908.87,942.48 897.49,945.77 C882.30,949.86 851.62,956.89 836.19,959.98 C820.70,962.82 790.29,967.44 774.81,969.43 C759.30,971.19 728.56,973.93 713.21,974.85 C697.76,975.54 667.03,976.18 651.81,976.36 C641.09,976.32 603.74,974.88 587.60,974.07 C572.75,973.09 543.39,970.78 528.89,969.45 C514.44,967.80 482.73,963.10 467.49,960.64 C451.09,957.67 418.40,951.44 402.10,948.17 C387.06,944.84 352.15,935.90 336.67,931.35 C329.81,929.21 316.99,925.08 311.03,923.09 C299.34,918.87 287.11,913.52 281.00,910.28 C277.04,908.13 273.08,905.50 270.11,902.74 C266.61,899.31 266.38,898.91 266.52,898.35" fill="none" stroke="rgb(255, 198, 0)" stroke-width="96.06" stroke-opacity="1.00" stroke-linejoin="round"/>
<path d="M2046.26,498.72 C2046.37,501.60 2047.26,504.30 2049.20,508.19 C2057.43,523.96 2097.22,588.57 2114.05,616.78 C2129.25,643.48 2159.86,698.00 2175.27,725.83 C2182.91,739.88 2198.10,768.11 2205.64,782.28 C2212.88,796.34 2227.24,824.88 2234.37,839.36 C2241.24,853.86 2254.58,882.54 2261.06,896.72 C2267.41,911.27 2280.01,940.88 2286.25,955.96 C2292.05,970.64 2303.24,999.80 2308.64,1014.27 C2313.92,1029.64 2323.93,1059.76 2328.65,1074.51 C2332.85,1088.44 2340.85,1117.74 2344.35,1131.90 C2347.85,1147.35 2354.47,1180.57 2357.45,1196.35 C2360.51,1213.87 2366.03,1246.39 2368.50,1261.38 C2371.54,1280.85 2373.14,1302.40 2373.14,1302.48 C2373.14,1302.63 2373.10,1302.75 2373.02,1302.82" fill="none" stroke="rgb(255, 198, 0)" stroke-width="96.06" stroke-opacity="1.00" stroke-linejoin="round"/>
<path d="M453.74,498.72 C453.63,501.60 452.74,504.30 450.80,508.19 C442.57,523.96 402.78,588.57 385.95,616.78 C370.75,643.48 340.14,698.00 324.73,725.83 C317.09,739.88 301.90,768.11 294.36,782.28 C287.12,796.34 272.76,824.88 265.63,839.36 C258.76,853.86 245.42,882.54 238.94,896.72 C232.59,911.27 219.99,940.88 213.75,955.96 C207.95,970.64 196.76,999.80 191.36,1014.27 C186.08,1029.64 176.07,1059.76 171.35,1074.51 C167.15,1088.44 159.15,1117.74 155.65,1131.90 C152.15,1147.35 145.53,1180.57 142.55,1196.35 C139.49,1213.87 133.97,1246.39 131.50,1261.38 C128.46,1280.85 126.86,1302.40 126.86,1302.48 C126.86,1302.63 126.90,1302.75 126.98,1302.82" fill="none" stroke="rgb(255, 198, 0)" stroke-width="96.06" stroke-opacity="1.00" stroke-linejoin="round"/>
<path d="M125.92,1271.09 C126.01,1280.03 126.44,1287.87 127.84,1297.44 C130.38,1313.16 135.83,1345.89 138.74,1362.89 C141.81,1379.50 147.76,1409.92 151.20,1424.64 C154.89,1438.73 163.77,1469.44 168.73,1484.91 C173.84,1499.47 185.14,1529.14 191.19,1543.97 C197.34,1558.22 210.59,1586.84 217.42,1601.23 C224.53,1615.42 239.39,1643.21 247.04,1657.23 C254.99,1671.16 271.22,1697.89 279.46,1711.13 C288.12,1724.30 305.50,1750.09 314.31,1762.39 C323.48,1774.70 342.01,1799.10 351.51,1811.00 C361.39,1822.76 381.51,1846.12 391.74,1857.70 C402.04,1868.95 424.26,1891.89 435.51,1903.28 C446.77,1914.16 469.92,1935.79 481.81,1946.56 C493.70,1956.78 517.56,1976.85 530.60,1987.14 C543.40,1996.83 567.85,2015.15 580.07,2023.90 C591.48,2031.89 619.23,2049.90 631.82,2057.60 C646.55,2066.39 675.52,2083.39 688.28,2090.49 C695.96,2094.58 712.44,2102.80 719.01,2105.60 C737.13,2113.02 745.85,2115.72 754.83,2118.20 C754.83,2118.20 753.35,2117.59 753.35,2117.59" fill="none" stroke="rgb(255, 198, 0)" stroke-width="96.06" stroke-opacity="1.00" stroke-linejoin="round"/>
<path d="M2374.08,1271.09 C2373.99,1280.03 2373.56,1287.87 2372.16,1297.44 C2369.62,1313.16 2364.17,1345.89 2361.26,1362.89 C2358.19,1379.50 2352.24,1409.92 2348.80,1424.64 C2345.11,1438.73 2336.23,1469.44 2331.27,1484.91 C2326.16,1499.47 2314.86,1529.14 2308.81,1543.97 C2302.66,1558.22 2289.41,1586.84 2282.58,1601.23 C2275.47,1615.42 2260.61,1643.21 2252.96,1657.23 C2245.01,1671.16 2228.78,1697.89 2220.54,1711.13 C2211.88,1724.30 2194.50,1750.09 2185.69,1762.39 C2176.52,1774.70 2157.99,1799.10 2148.49,1811.00 C2138.61,1822.76 2118.49,1846.12 2108.26,1857.70 C2097.96,1868.95 2075.74,1891.89 2064.49,1903.28 C2053.23,1914.16 2030.08,1935.79 2018.19,1946.56 C2006.30,1956.78 1982.44,1976.85 1969.40,1987.14 C1956.60,1996.83 1932.15,2015.15 1919.93,2023.90 C1908.52,2031.89 1880.77,2049.90 1868.18,2057.60 C1853.45,2066.39 1824.48,2083.39 1811.72,2090.49 C1804.04,2094.58 1787.56,2102.80 1780.99,2105.60 C1762.87,2113.02 1754.15,2115.72 1745.17,2118.20 C1745.17,2118.20 1746.65,2117.59 1746.65,2117.59" fill="none" stroke="rgb(255, 198, 0)" stroke-width="96.06" stroke-opacity="1.00" stroke-linejoin="round"/>
<path d="M767.58,2128.82 C767.51,2128.65 766.20,2128.82 764.76,2129.29 C762.96,2129.92 762.35,2131.15 763.25,2132.71 C764.36,2134.54 770.17,2141.14 772.99,2143.47 C773.86,2144.19 790.72,2155.43 798.10,2160.07 C808.01,2165.95 819.47,2171.79 824.43,2174.06 C830.73,2176.85 845.44,2182.29 854.30,2185.24 C867.01,2189.08 897.21,2197.34 913.27,2201.24 C932.42,2205.42 960.01,2210.11 975.42,2212.24 C990.75,2214.10 1021.24,2217.58 1036.40,2219.20 C1051.62,2220.63 1082.90,2223.25 1098.98,2224.42 C1131.80,2226.03 1180.34,2227.26 1194.66,2227.41 C1214.63,2227.05 1234.92,2225.22 1238.31,2224.92" fill="none" stroke="rgb(255, 198, 0)" stroke-width="96.06" stroke-opacity="1.00" stroke-linejoin="round"/>
<path d="M1732.42,2128.82 C1732.49,2128.65 1733.80,2128.82 1735.24,2129.29 C1737.04,2129.92 1737.65,2131.15 1736.75,2132.71 C1735.64,2134.54 1729.83,2141.14 1727.01,2143.47 C1726.14,2144.19 1709.28,2155.43 1701.90,2160.07 C1691.99,2165.95 1680.53,2171.79 1675.57,2174.06 C1669.27,2176.85 1654.56,2182.29 1645.70,2185.24 C1632.99,2189.08 1602.79,2197.34 1586.73,2201.24 C1567.58,2205.42 1539.99,2210.11 1524.58,2212.24 C1509.25,2214.10 1478.76,2217.58 1463.60,2219.20 C1448.38,2220.63 1417.10,2223.25 1401.02,2224.42 C1368.20,2226.03 1319.66,2227.26 1305.34,2227.41 C1285.37,2227.05 1265.08,2225.22 1261.69,2224.92" fill="none" stroke="rgb(255, 198, 0)" stroke-width="96.06" stroke-opacity="1.00" stroke-linejoin="round"/>
<path d="M145.99,1264.05 C146.67,1264.69 147.18,1265.10 148.64,1266.11 C155.64,1271.00 162.77,1274.82 172.36,1279.56 C202.10,1293.77 268.57,1325.21 285.96,1334.13 C299.29,1341.29 329.77,1358.84 340.13,1365.46 C353.18,1374.14 378.16,1391.79 390.69,1401.27 C402.86,1410.83 422.87,1427.34 437.06,1440.02 C448.02,1450.16 469.31,1471.00 479.89,1481.94 C493.04,1496.03 510.23,1515.98 519.99,1527.91 C529.42,1539.94 547.59,1564.98 556.36,1577.77 C562.53,1587.01 581.24,1617.18 589.16,1630.62 C596.41,1643.76 610.57,1670.17 617.48,1683.45 C623.71,1696.26 636.48,1723.26 643.12,1738.24 C649.09,1752.40 661.13,1781.47 667.21,1796.39 C672.39,1809.44 682.96,1837.86 687.58,1851.17 C692.30,1865.29 701.16,1892.23 705.30,1905.06 C714.88,1935.79 734.55,2004.65 743.48,2036.83 C748.15,2054.14 756.45,2085.11 760.08,2098.77 C764.62,2116.14 768.25,2135.44 768.31,2135.90 C768.36,2136.31 768.43,2137.22 768.54,2138.65" fill="none" stroke="rgb(255, 198, 0)" stroke-width="96.06" stroke-opacity="1.00" stroke-linejoin="round"/>
<path d="M2354.01,1264.05 C2353.33,1264.69 2352.82,1265.10 2351.36,1266.11 C2344.36,1271.00 2337.23,1274.82 2327.64,1279.56 C2297.90,1293.77 2231.43,1325.21 2214.04,1334.13 C2200.71,1341.29 2170.23,1358.84 2159.87,1365.46 C2146.82,1374.14 2121.84,1391.79 2109.31,1401.27 C2097.14,1410.83 2077.13,1427.34 2062.94,1440.02 C2051.98,1450.16 2030.69,1471.00 2020.11,1481.94 C2006.96,1496.03 1989.77,1515.98 1980.01,1527.91 C1970.58,1539.94 1952.41,1564.98 1943.64,1577.77 C1937.47,1587.01 1918.76,1617.18 1910.84,1630.62 C1903.59,1643.76 1889.43,1670.17 1882.52,1683.45 C1876.29,1696.26 1863.52,1723.26 1856.88,1738.24 C1850.91,1752.40 1838.87,1781.47 1832.79,1796.39 C1827.61,1809.44 1817.04,1837.86 1812.42,1851.17 C1807.70,1865.29 1798.84,1892.23 1794.70,1905.06 C1785.12,1935.79 1765.45,2004.65 1756.52,2036.83 C1751.85,2054.14 1743.55,2085.11 1739.92,2098.77 C1735.38,2116.14 1731.75,2135.44 1731.69,2135.90 C1731.64,2136.31 1731.57,2137.22 1731.46,2138.65" fill="none" stroke="rgb(255, 198, 0)" stroke-width="96.06" stroke-opacity="1.00" stroke-linejoin="round"/>
<path d="M2046.64,491.83 C2042.27,489.09 2032.04,482.74 2019.52,476.28 C1994.89,464.48 1933.88,436.75 1904.32,423.53 C1890.65,417.75 1861.74,406.67 1847.74,401.86 C1833.05,397.07 1802.09,387.77 1786.28,383.40 C1775.43,380.54 1739.34,372.38 1723.34,368.93 C1707.74,365.83 1677.58,360.11 1663.03,357.49 C1649.08,355.24 1620.39,350.85 1603.63,348.68 C1573.14,345.39 1510.47,339.22 1478.29,336.35 C1461.01,335.10 1426.03,332.81 1408.32,331.76 C1372.36,330.30 1303.04,327.98 1269.69,327.12 C1258.79,326.85 1245.81,326.52 1243.72,326.47" fill="none" stroke="rgb(255, 198, 0)" stroke-width="96.06" stroke-opacity="1.00" stroke-linejoin="round"/>
<path d="M453.36,491.83 C457.73,489.09 467.96,482.74 480.48,476.28 C505.11,464.48 566.12,436.75 595.68,423.53 C609.35,417.75 638.26,406.67 652.26,401.86 C666.95,397.07 697.91,387.77 713.72,383.40 C724.57,380.54 760.66,372.38 776.66,368.93 C792.26,365.83 822.42,360.11 836.97,357.49 C850.92,355.24 879.61,350.85 896.37,348.68 C926.86,345.39 989.53,339.22 1021.71,336.35 C1038.99,335.10 1073.97,332.81 1091.68,331.76 C1127.64,330.30 1196.96,327.98 1230.31,327.12 C1241.21,326.85 1254.19,326.52 1256.28,326.47" fill="none" stroke="rgb(255, 198, 0)" stroke-width="96.06" stroke-opacity="1.00" stroke-linejoin="round"/>
<path d="M1906.18,708.84" fill="none" stroke="rgb(255, 198, 0)" stroke-width="128.08" stroke-opacity="1.00" stroke-linejoin="round"/>
<path d="M593.82,708.84" fill="none" stroke="rgb(255, 198, 0)" stroke-width="128.08" stroke-opacity="1.00" stroke-linejoin="round"/>
<path d="M1907.17,708.84 C1907.17,708.84 1908.17,709.10 1908.17,709.10" fill="none" stroke="rgb(255, 198, 0)" stroke-width="128.08" stroke-opacity="1.00" stroke-linejoin="round"/>
<path d="M592.83,708.84 C592.83,708.84 591.83,709.10 591.83,709.10" fill="none" stroke="rgb(255, 198, 0)" stroke-width="128.08" stroke-opacity="1.00" stroke-linejoin="round"/>
<path d="M951.63,700.52 C951.63,700.52 952.23,702.10 952.23,702.10" fill="none" stroke="rgb(255, 198, 0)" stroke-width="160.09" stroke-opacity="1.00" stroke-linejoin="round"/>
<path d="M1548.37,700.52 C1548.37,700.52 1547.77,702.10 1547.77,702.10" fill="none" stroke="rgb(255, 198, 0)" stroke-width="160.09" stroke-opacity="1.00" stroke-linejoin="round"/>
<path d="M445.02,494.31 C445.14,494.22 446.10,491.61 446.51,490.52 C447.91,486.68 448.32,484.51 447.68,484.19 C446.84,483.90 436.75,495.20 429.60,505.52 C420.05,519.90 371.55,597.02 365.85,606.31 C355.12,624.23 320.30,687.13 304.25,716.57 C296.75,731.09 282.17,759.92 275.10,774.22 C268.28,788.59 254.90,817.38 248.34,831.79 C242.21,845.94 230.02,874.61 223.96,889.15 C218.20,903.75 206.88,933.13 201.36,948.47 C196.01,964.08 185.69,995.07 180.70,1010.45 C176.25,1024.86 167.60,1053.83 163.41,1068.38 C159.67,1082.39 151.91,1112.87 147.89,1129.32 C140.78,1161.67 127.35,1224.31 121.05,1254.60 C119.24,1264.30 116.24,1280.96 115.86,1285.93 C115.64,1289.88 115.90,1295.63 116.91,1298.78 C118.29,1303.03 126.06,1319.38 127.35,1322.17 C131.65,1331.87 136.84,1343.49 137.73,1345.41" fill="none" stroke="rgb(255, 198, 0)" stroke-width="85.38" stroke-opacity="1.00" stroke-linejoin="round"/>
<path d="M2054.98,494.31 C2054.86,494.22 2053.90,491.61 2053.49,490.52 C2052.09,486.68 2051.68,484.51 2052.32,484.19 C2053.16,483.90 2063.25,495.20 2070.40,505.52 C2079.95,519.90 2128.45,597.02 2134.15,606.31 C2144.88,624.23 2179.70,687.13 2195.75,716.57 C2203.25,731.09 2217.83,759.92 2224.90,774.22 C2231.72,788.59 2245.10,817.38 2251.66,831.79 C2257.79,845.94 2269.98,874.61 2276.04,889.15 C2281.80,903.75 2293.12,933.13 2298.64,948.47 C2303.99,964.08 2314.31,995.07 2319.30,1010.45 C2323.75,1024.86 2332.40,1053.83 2336.59,1068.38 C2340.33,1082.39 2348.09,1112.87 2352.11,1129.32 C2359.22,1161.67 2372.65,1224.31 2378.95,1254.60 C2380.76,1264.30 2383.76,1280.96 2384.14,1285.93 C2384.36,1289.88 2384.10,1295.63 2383.09,1298.78 C2381.71,1303.03 2373.94,1319.38 2372.65,1322.17 C2368.35,1331.87 2363.16,1343.49 2362.27,1345.41" fill="none" stroke="rgb(255, 198, 0)" stroke-width="85.38" stroke-opacity="1.00" stroke-linejoin="round"/>
<path d="M1547.85,1632.99 C1547.85,1632.99 1547.64,1634.99 1547.64,1634.99" fill="none" stroke="rgb(255, 198, 0)" stroke-width="149.42" stroke-opacity="1.00" stroke-linejoin="round"/>
<path d="M952.15,1632.99 C952.15,1632.99 952.36,1634.99 952.36,1634.99" fill="none" stroke="rgb(255, 198, 0)" stroke-width="149.42" stroke-opacity="1.00" stroke-linejoin="round"/>
<path d="M1550.29,1216.94 C1550.29,1216.94 1548.03,1213.40 1548.03,1213.40" fill="none" stroke="rgb(255, 198, 0)" stroke-width="149.42" stroke-opacity="1.00" stroke-linejoin="round"/>
<path d="M949.71,1216.94 C949.71,1216.94 951.97,1213.40 951.97,1213.40" fill="none" stroke="rgb(255, 198, 0)" stroke-width="149.42" stroke-opacity="1.00" stroke-linejoin="round"/>
</g>
</svg>
