<?xml version="1.0" encoding="utf-8"?>
<!-- Generator: Adobe Illustrator 23.0.1, SVG Export Plug-In . SVG Version: 6.00 Build 0)  -->
<svg version="1.1" id="Warstwa_1" xmlns="http://www.w3.org/2000/svg" xmlns:xlink="http://www.w3.org/1999/xlink" x="0px" y="0px"
	 viewBox="0 0 612 792" style="enable-background:new 0 0 612 792;" xml:space="preserve">
<g>
	<path d="M131.59,452.09c-1.92,0-3.77-0.41-5.54-1.22c-1.97-0.91-3.72-2.24-5.26-4c-1.54-1.75-2.78-3.85-3.74-6.3
		c-0.58-1.54-1.03-3.17-1.37-4.9c-0.33-1.73-0.5-3.58-0.5-5.54c0-3.99,0.76-8.24,2.27-12.78c1.51-4.54,4.04-9.13,7.6-13.79
		c1.2-1.63,2.81-3.52,4.82-5.65s4.3-4.39,6.84-6.77c2.54-2.38,5.27-4.79,8.17-7.24c2.9-2.45,5.84-4.8,8.82-7.06
		c-0.14-0.72-0.34-1.44-0.58-2.16c-0.72-2.59-1.58-4.46-2.59-5.62c-1.01-1.15-2.14-1.73-3.38-1.73c-1.1,0-2.29,0.43-3.56,1.3
		c-1.27,0.86-2.63,2.06-4.07,3.6c-4.13,4.42-7.67,7.58-10.62,9.5c-2.95,1.92-5.39,2.95-7.31,3.1H121c-2.06,0-3.56-0.67-4.5-2.02
		c-0.94-1.34-1.4-3.07-1.4-5.18l0.14-2.02c0.29-2.4,1.06-4.93,2.3-7.6c1.25-2.66,2.88-5,4.9-7.02c1.54-1.54,3.25-2.77,5.15-3.71
		c1.9-0.94,3.97-1.4,6.23-1.4c2.59,0,5.26,0.7,7.99,2.09h0.07v0.07h0.07v0.07l0.22,0.07v0.07h0.07v0.07h0.07l0.07,0.22h0.07v0.14
		h0.07v0.14l0.07,0.14v0.22l0.07,0.14v0.14h-0.07v0.36h-0.07V360h-0.07v0.14h-0.07v0.14h-0.07v0.07h-0.07v0.07h-0.07v0.07h-0.07
		v0.07l-0.22,0.07v0.07h-0.14v0.07h-0.14l-0.14,0.07h-0.79v-0.07h-0.14c-1.01-0.38-1.94-0.58-2.81-0.58c-2.11,0-4.22,0.73-6.34,2.2
		c-2.11,1.46-4.01,3.25-5.69,5.36c-1.39,1.68-2.52,3.38-3.38,5.11c-0.91,1.78-1.51,3.38-1.8,4.82c-0.14,0.72-0.22,1.32-0.22,1.8
		c0,1.44,0.53,2.16,1.58,2.16c0.67,0,1.49-0.25,2.45-0.76c0.96-0.5,1.98-1.14,3.06-1.91s2.16-1.62,3.24-2.56
		c1.08-0.94,2.08-1.82,2.99-2.66c0.91-0.84,1.69-1.59,2.34-2.27c0.65-0.67,1.09-1.13,1.33-1.37c2.98-3.12,5.71-4.97,8.21-5.54
		c0.38-0.1,0.74-0.17,1.08-0.22c0.33-0.05,0.7-0.07,1.08-0.07c1.49,0,2.81,0.48,3.96,1.44c0.43,0.29,0.82,0.6,1.15,0.94
		c1.82,1.73,3.24,4.32,4.25,7.78c2.21-1.54,4.39-2.95,6.55-4.25c2.16-1.3,4.24-2.42,6.23-3.38c1.99-0.96,3.88-1.7,5.65-2.23
		c1.77-0.53,3.38-0.79,4.82-0.79h0.14c0.43,0,0.79,0.16,1.08,0.47c0.29,0.31,0.43,0.66,0.43,1.04c0,0.38-0.14,0.73-0.43,1.04
		c-0.29,0.31-0.62,0.47-1.01,0.47h-0.14c-1.3,0-2.8,0.26-4.5,0.79c-1.7,0.53-3.52,1.27-5.44,2.23c-1.92,0.96-3.95,2.1-6.08,3.42
		c-2.14,1.32-4.28,2.77-6.44,4.36c0.53,2.21,0.91,4.6,1.15,7.16c0.24,2.57,0.36,5.27,0.36,8.1c0,2.64-0.11,5.34-0.32,8.1
		c-0.22,2.76-0.54,5.51-0.97,8.24c-0.91,5.9-2.05,11.14-3.42,15.7c-1.37,4.56-2.88,8.5-4.54,11.81c-1.66,3.31-3.43,6.05-5.33,8.21
		c-1.9,2.16-3.8,3.82-5.72,4.97c-1.25,0.77-2.5,1.32-3.74,1.66C134.08,451.92,132.84,452.09,131.59,452.09z M131.8,449.14
		c2.21,0,4.24-0.71,6.08-2.13c1.85-1.42,3.54-3.25,5.08-5.51c1.54-2.26,2.92-4.79,4.14-7.6c1.22-2.81,2.28-5.58,3.17-8.32
		c0.89-2.74,1.61-5.32,2.16-7.74c0.55-2.42,0.95-4.38,1.19-5.87c0.53-3.31,0.91-6.61,1.15-9.9c0.24-3.29,0.36-6.49,0.36-9.61v-1.22
		c-0.05-2.02-0.13-3.94-0.25-5.76c-0.12-1.82-0.3-3.58-0.54-5.26c-2.83,2.16-5.62,4.39-8.35,6.7c-2.74,2.3-5.28,4.57-7.63,6.8
		c-2.35,2.23-4.46,4.36-6.34,6.37c-1.87,2.02-3.38,3.77-4.54,5.26c-3.31,4.37-5.68,8.66-7.09,12.89c-1.42,4.22-2.12,8.16-2.12,11.81
		c0,3.5,0.55,6.65,1.66,9.43c0.82,2.06,1.86,3.83,3.13,5.29c1.27,1.46,2.7,2.55,4.28,3.28S130.41,449.14,131.8,449.14z"/>
	<path d="M255.5,301.11c0.24-0.82,0.62-1.42,1.15-1.8c0.53-0.38,1.06-0.58,1.58-0.58c0.53,0,1.01,0.23,1.44,0.68
		c0.43,0.46,0.65,1.16,0.65,2.12v0.58c-0.24,2.02-0.52,4.18-0.83,6.48c-0.31,2.3-0.66,4.75-1.04,7.34
		c-0.53,3.98-1.1,8.28-1.73,12.89c-0.63,4.61-1.25,9.35-1.87,14.22c-0.63,4.87-1.21,9.8-1.76,14.8c-0.55,4.99-1.03,9.89-1.44,14.69
		c-0.41,4.8-0.75,9.44-1.01,13.93c-0.26,4.49-0.4,8.63-0.4,12.42c0,2.74,0.07,5.28,0.22,7.63c0.14,2.35,0.38,4.44,0.72,6.26
		c0.33,1.82,0.77,3.36,1.3,4.61c0.53,1.25,1.15,2.16,1.87,2.74c0.43,0.29,0.65,0.72,0.65,1.3c0,0.34-0.1,0.62-0.29,0.86
		c-0.29,0.43-0.74,0.65-1.37,0.65c-0.29,0-0.5-0.03-0.65-0.07c-1.39-0.19-2.56-1.01-3.49-2.45c-0.94-1.44-1.69-3.36-2.27-5.76
		c-0.58-2.4-1-5.21-1.26-8.42c-0.26-3.22-0.4-6.72-0.4-10.51c0-4.03,0.12-8.31,0.36-12.82c0.24-4.51,0.58-9.12,1.01-13.82
		c0.43-4.7,0.91-9.42,1.44-14.15s1.08-9.34,1.66-13.82c0.58-4.49,1.15-8.76,1.73-12.82c0.58-4.06,1.13-7.76,1.66-11.12
		c-0.67,1.83-1.52,4.13-2.56,6.91c-1.03,2.78-2.21,5.86-3.53,9.22c-1.32,3.36-2.77,6.89-4.36,10.58c-1.58,3.7-3.25,7.41-5,11.12
		c-1.75,3.72-3.59,7.32-5.51,10.8c-1.92,3.48-3.87,6.66-5.83,9.54c-1.97,2.88-3.96,5.35-5.98,7.42c-2.02,2.06-4.01,3.55-5.98,4.46
		c-0.67,0.33-1.33,0.58-1.98,0.72c-0.65,0.14-1.28,0.24-1.91,0.29h-0.72c-2.3,0-4.27-0.72-5.9-2.16c-1.63-1.44-2.93-3.17-3.89-5.18
		c-0.96-2.11-1.61-4.58-1.94-7.42c-4.27,4.7-7.96,8.17-11.05,10.4c-3.1,2.23-5.65,3.52-7.67,3.85c-0.1,0-0.17,0.01-0.22,0.04
		c-0.05,0.02-0.12,0.04-0.22,0.04h-0.14c-0.24,0.05-0.44,0.07-0.61,0.07c-0.17,0-0.35,0-0.54,0c-1.97,0-3.4-0.67-4.28-2.02
		c-0.89-1.34-1.33-3.07-1.33-5.18c0-0.24,0-0.5,0-0.79s0.02-0.55,0.07-0.79c0.24-2.45,0.97-5.04,2.2-7.78
		c1.22-2.74,2.92-5.16,5.08-7.27c1.54-1.54,3.25-2.78,5.15-3.74c1.9-0.96,3.97-1.44,6.23-1.44c1.25,0,2.53,0.17,3.85,0.5
		c1.32,0.34,2.68,0.89,4.07,1.66c0.48,0.34,0.72,0.77,0.72,1.3c0,0.43-0.14,0.82-0.43,1.15c-0.29,0.34-0.62,0.5-1.01,0.5
		c-0.14,0-0.31-0.05-0.5-0.14c-0.72-0.33-1.56-0.5-2.52-0.5c-1.01,0-2.03,0.21-3.06,0.61c-1.03,0.41-2.05,0.95-3.06,1.62
		c-1.01,0.67-1.99,1.46-2.95,2.38c-0.96,0.91-1.85,1.9-2.66,2.95c-1.3,1.63-2.42,3.38-3.38,5.26c-0.86,1.68-1.42,3.29-1.66,4.82
		c-0.05,0.29-0.08,0.55-0.11,0.79c-0.02,0.24-0.04,0.48-0.04,0.72c0,0.77,0.13,1.3,0.4,1.58c0.26,0.29,0.61,0.43,1.04,0.43
		c0.72,0,1.57-0.3,2.56-0.9c0.98-0.6,1.86-1.16,2.63-1.69c1.82-1.3,3.89-3.05,6.19-5.26c2.3-2.21,4.9-5.04,7.78-8.5
		c0.43-0.53,0.91-0.79,1.44-0.79c0.38,0,0.72,0.14,1.01,0.43c0.29,0.29,0.43,0.67,0.43,1.15c0,0.1-0.05,0.34-0.14,0.72
		c0,0.14-0.01,0.3-0.04,0.47c-0.02,0.17-0.04,0.35-0.04,0.54c0,1.25,0.22,2.64,0.65,4.18c0.43,1.54,1.01,3,1.73,4.39
		c0.72,1.39,1.55,2.63,2.48,3.71c0.94,1.08,1.88,1.79,2.84,2.12c0.53,0.19,1.13,0.29,1.8,0.29c2.06,0,4.24-1.04,6.52-3.13
		c2.28-2.09,4.6-4.86,6.95-8.32c2.35-3.46,4.68-7.45,6.98-11.99c2.3-4.54,4.52-9.24,6.66-14.11s4.16-9.77,6.08-14.69
		c1.92-4.92,3.66-9.49,5.22-13.72c1.56-4.22,2.88-7.94,3.96-11.16C254.17,305.02,254.97,302.64,255.5,301.11z"/>
	<path d="M336.21,420.27c-1.39,0-2.58-0.48-3.56-1.44c-0.98-0.96-1.8-2.3-2.45-4.03c-0.65-1.73-1.16-3.8-1.55-6.23
		c-0.38-2.42-0.65-5.12-0.79-8.1l-0.14-5.9c0-5.18,0.22-10.81,0.65-16.88s0.97-12.24,1.62-18.5c0.65-6.26,1.37-12.46,2.16-18.58
		s1.57-11.77,2.34-16.96l-5.33,0.14c-3.26,5.81-6.43,10.83-9.5,15.05c-3.07,4.22-5.95,7.81-8.64,10.76
		c-2.69,2.95-5.16,5.33-7.42,7.13c-2.26,1.8-4.22,3.18-5.9,4.14c-0.53,0.34-1.01,0.61-1.44,0.83c-0.43,0.22-0.84,0.42-1.22,0.61
		l0.14,0.29c0.34,0.58,0.67,1.24,1.01,1.98c0.33,0.75,0.65,1.55,0.94,2.41c0.38,1.1,0.71,2.32,0.97,3.64
		c0.26,1.32,0.4,2.68,0.4,4.07c0,2.02-0.35,4.09-1.04,6.23c-0.7,2.14-1.91,4.21-3.64,6.23c-1.54,1.78-3.04,3.05-4.5,3.82
		c-1.46,0.77-2.84,1.15-4.14,1.15c-0.58,0-1.15-0.07-1.73-0.22c-1.68-0.38-3.14-1.33-4.39-2.84c-1.25-1.51-2.21-3.32-2.88-5.44
		c-0.67-2.16-1.01-4.42-1.01-6.77c0-1.06,0.07-2.12,0.22-3.2c0.14-1.08,0.38-2.12,0.72-3.13c0.43-1.44,1.04-2.81,1.84-4.1
		s1.76-2.44,2.92-3.42c1.15-0.98,2.51-1.76,4.07-2.34c1.56-0.58,3.32-0.89,5.29-0.94h0.79c0.19,0,0.38-0.02,0.58-0.07
		c0.1-0.05,0.26-0.07,0.5-0.07c0.29,0,0.58,0.07,0.86,0.22c0.86-0.29,1.94-0.79,3.24-1.51c1.58-0.91,3.42-2.21,5.51-3.89
		c2.09-1.68,4.39-3.89,6.91-6.62c2.52-2.74,5.21-6.05,8.06-9.94c2.86-3.89,5.82-8.52,8.89-13.9l-36.43,1.3
		c-0.43,0-0.8-0.14-1.12-0.43c-0.31-0.29-0.47-0.62-0.47-1.01v-0.14c0-0.38,0.14-0.72,0.43-1.01s0.62-0.43,1.01-0.43l38.38-1.44
		c1.73-3.17,3.49-6.59,5.29-10.26c1.8-3.67,3.61-7.62,5.44-11.84c0.1-0.24,0.2-0.44,0.32-0.61c0.12-0.17,0.23-0.37,0.32-0.61
		c0.72-1.15,1.56-1.73,2.52-1.73c0.53,0,0.96,0.22,1.3,0.65c0.34,0.43,0.5,1.13,0.5,2.09l-0.07,1.01l-1.8,13.9
		c-0.19,1.1-0.36,2.23-0.5,3.38c-0.14,1.15-0.31,2.35-0.5,3.6l54.72-1.94c0.43,0,0.79,0.14,1.08,0.43s0.46,0.65,0.5,1.08
		c0,0.38-0.14,0.73-0.43,1.04c-0.29,0.31-0.65,0.49-1.08,0.54l-55.22,1.94c-0.82,5.81-1.62,11.94-2.41,18.4
		c-0.79,6.46-1.52,12.89-2.2,19.3c-0.67,6.41-1.21,12.63-1.62,18.65c-0.41,6.02-0.61,11.51-0.61,16.45c0,5.33,0.29,9.85,0.86,13.57
		c0.58,3.72,1.56,6.2,2.95,7.45c0.72,0.14,1.13,0.62,1.22,1.44c0,0.43-0.14,0.8-0.43,1.12c-0.29,0.31-0.62,0.47-1.01,0.47H336.21z
		 M286.82,388.73c1.44-0.48,3-1.68,4.68-3.6c1.44-1.68,2.45-3.42,3.02-5.22s0.86-3.56,0.86-5.29c0-1.25-0.11-2.44-0.32-3.56
		s-0.49-2.17-0.83-3.13c-0.24-0.77-0.52-1.46-0.83-2.09c-0.31-0.62-0.61-1.2-0.9-1.73l-0.43-0.72c-0.1,0.29-0.28,0.54-0.54,0.76
		c-0.26,0.22-0.56,0.32-0.9,0.32h-0.79c-1.83,0-3.38,0.65-4.68,1.94s-2.3,2.93-3.02,4.9c-0.72,2.06-1.13,4.2-1.22,6.41l-0.07,0.79
		c0,1.87,0.26,3.65,0.79,5.33c0.43,1.44,1.08,2.62,1.94,3.53C284.44,388.27,285.52,388.73,286.82,388.73z M334.91,320.55l1.66-11.09
		c-0.96,2.02-1.91,3.96-2.84,5.83c-0.94,1.87-1.88,3.67-2.84,5.4L334.91,320.55z"/>
	<path d="M366.81,394.64c-0.38,0-0.82-0.12-1.3-0.36c-0.86-0.53-1.5-1.91-1.91-4.14c-0.41-2.23-0.61-5.08-0.61-8.53v-1.01
		l-0.58-0.07c-2.83-0.53-4.25-1.73-4.25-3.6c0-0.72,0.34-1.54,1.01-2.45c0.77-1.01,1.49-1.96,2.16-2.84
		c0.67-0.89,1.34-1.74,2.02-2.56c0.29-4.56,0.68-9.3,1.19-14.22c0.5-4.92,1.03-9.8,1.58-14.65c0.55-4.85,1.13-9.5,1.73-13.97
		c0.6-4.46,1.15-8.48,1.66-12.06c0.5-3.58,0.91-6.58,1.22-9c0.31-2.42,0.49-4.02,0.54-4.79l0.07-0.22c0.24-1.63,0.67-2.75,1.3-3.35
		c0.62-0.6,1.27-0.9,1.94-0.9c0.72,0,1.38,0.35,1.98,1.04c0.6,0.7,0.9,1.72,0.9,3.06c0,0.77-0.14,1.63-0.43,2.59
		c-0.29,0.96-0.77,1.99-1.44,3.1V306c-0.53,4.13-1.11,8.57-1.73,13.32c-0.62,4.75-1.24,9.6-1.84,14.54
		c-0.6,4.94-1.16,9.85-1.69,14.72c-0.53,4.87-1.01,9.52-1.44,13.93c0.62-0.67,1.22-1.32,1.8-1.94c0.58-0.62,1.18-1.25,1.8-1.87
		c1.06-1.05,2.15-2.1,3.28-3.13c1.13-1.03,2.34-2.09,3.64-3.17s2.69-2.21,4.18-3.38c1.49-1.18,3.12-2.46,4.9-3.85
		c0.86-0.72,1.73-1.08,2.59-1.08c0.72,0,1.3,0.24,1.73,0.72c0.43,0.48,0.65,1.06,0.65,1.73c0,0.82-0.38,1.65-1.15,2.48
		c-0.77,0.84-1.99,1.31-3.67,1.4c-1.58,1.15-3.28,2.5-5.08,4.03c-1.8,1.54-3.6,3.14-5.4,4.82c-1.8,1.68-3.54,3.4-5.22,5.15
		c-1.68,1.75-3.22,3.4-4.61,4.93c-0.14,1.54-0.25,2.99-0.32,4.36c-0.07,1.37-0.16,2.68-0.25,3.92c0.24,0,0.47,0,0.68,0
		s0.44-0.02,0.68-0.07c2.74-0.19,5.77-0.62,9.11-1.3c3.33-0.67,6.66-1.52,9.97-2.56c3.31-1.03,6.41-2.24,9.29-3.64
		c2.88-1.39,5.23-2.88,7.06-4.46c0.24-0.24,0.58-0.36,1.01-0.36c0.43,0,0.8,0.16,1.12,0.47c0.31,0.31,0.47,0.66,0.47,1.04
		c0,0.48-0.19,0.86-0.58,1.15c-1.25,1.15-2.83,2.26-4.75,3.31c-1.92,1.06-4.03,2.06-6.34,3.02c-2.3,0.96-4.72,1.84-7.24,2.63
		c-2.52,0.79-5.02,1.48-7.49,2.05c-2.47,0.58-4.84,1.02-7.09,1.33c-2.26,0.31-4.27,0.47-6.05,0.47v3.17c0,1.54,0.04,2.86,0.11,3.96
		c0.07,1.1,0.2,1.97,0.4,2.59l1.73-2.81c0.29-0.53,0.74-0.79,1.37-0.79c0.38,0,0.73,0.16,1.04,0.47c0.31,0.31,0.47,0.66,0.47,1.04
		c0,0.24-0.07,0.5-0.22,0.79C370.39,392.81,368.49,394.64,366.81,394.64z M363.07,375.48c-0.14,0.24-0.31,0.48-0.5,0.72
		c-0.19,0.24-0.29,0.48-0.29,0.72c0,0.34,0.22,0.53,0.65,0.58h0.07L363.07,375.48z"/>
	<path d="M403.46,395.21c-1.27-1.67-1.72-4.65-1.76-4.93c-0.31-2.18-0.47-4.57-0.47-7.16v-2.02c0-0.53,0.01-1.04,0.04-1.55
		c0.03-0.5,0.04-1.02,0.04-1.55c0.14-2.45,0.34-4.79,0.58-7.02c0.24-2.23,0.46-4.14,0.65-5.72v-0.94c0.24-1.1,0.84-1.9,1.8-2.38
		c0.48-0.19,0.86-0.29,1.15-0.29c0.43,0,0.86,0.07,1.3,0.22c0.38,0.24,0.71,0.54,0.97,0.9c0.26,0.36,0.4,0.83,0.4,1.4v0.43
		c-0.05,0.58-0.1,1.15-0.14,1.73c-0.05,0.58-0.1,1.2-0.14,1.87c-0.24,2.3-0.49,4.74-0.76,7.31c-0.26,2.57-0.44,5.03-0.54,7.38
		c-0.05,0.48-0.07,0.94-0.07,1.37c0,0.43-0.02,0.86-0.07,1.3v1.3c0,1.54,0.06,2.86,0.18,3.96c0.14,1.26,0.65,2.03,0.76,2.23
		c0.32,0.65,0.64,1.18,0.96,1.5c0.54,0.53,1.94,1.08,3.55,1.11c1.51,0.03,2.82-0.49,4.59-1.63c2.26-1.44,3.18-2.54,6.19-5.44
		c4.5-4.33,5.78-5.11,6.57-5.54c2.14-1.18,4.25-1.81,4.94-2.01c1.43-0.41,2.64-0.61,3.78-0.77c3.99-0.54,7.52-0.49,10.56-0.39
		c1.56,0.05,2.17,0.09,9.67,0.54c8.5,0.51,8.78,0.52,9.83,0.63c3.32,0.34,4.64,0.61,8.22,0.83c3.09,0.19,4.93,0.07,6.78-0.22
		c2.2-0.35,3.41-0.54,4.89-1.33c1.24-0.66,2.05-1.42,2.36-1.17c0.32,0.26-0.08,1.44-0.69,2.28c-0.87,1.18-2.13,1.61-2.78,1.83
		c-3.3,1.16-6.67,1.21-7.22,1.22c-1.42,0.01-3.07-0.02-8.95-0.55c-3.86-0.35-3.89-0.4-6.72-0.64c-1.66-0.14-4.52-0.36-8.1-0.54
		c-1.92-0.1-4.18-0.21-7.18-0.25c-2.57-0.04-4.14-0.05-6.33,0.09c-3.36,0.23-5.17,0.64-5.72,0.76c-1.56,0.37-2.92,0.83-3.74,1.16
		c-3.17,1.28-4.58,3.14-7.54,5.87c-6.39,5.91-11.1,7.68-13.22,7.85c-1.82,0.15-3.48-0.22-3.48-0.22c-1.01-0.23-1.76-0.55-2.3-0.78
		c-1.11-0.47-1.57-0.82-1.7-0.93C404.55,396.33,403.96,395.86,403.46,395.21z M407.35,342.58c0.43,0.29,0.65,0.72,0.65,1.3
		l-0.07,0.22c0.33,0.19,0.6,0.55,0.79,1.08v0.14c-0.05,0.38-0.19,0.73-0.43,1.04c-0.24,0.31-0.58,0.52-1.01,0.61h-0.43
		c-0.58,0-1.08-0.14-1.51-0.43c-0.43-0.29-0.77-0.65-1.01-1.08c-0.1-0.24-0.19-0.46-0.29-0.65c-0.1-0.19-0.14-0.41-0.14-0.65v-0.22
		c0.1-0.82,0.55-1.39,1.37-1.73c0.1-0.05,0.29-0.07,0.58-0.07C406.36,342.15,406.87,342.29,407.35,342.58z"/>
</g>
<g>
	<path d="M436.4,404c0,1.45-0.51,2.68-1.54,3.71c-1.03,1.03-2.26,1.54-3.71,1.54c-0.92,0-1.79-0.24-2.63-0.71
		c-0.86-0.48-1.5-1.12-1.93-1.91c-0.09-0.17-0.13-0.32-0.13-0.46c0-0.24,0.09-0.45,0.28-0.61s0.4-0.25,0.64-0.25
		c0.25,0,0.49,0.15,0.72,0.45c0.09,0.14,0.23,0.33,0.42,0.59c0.67,0.78,1.55,1.17,2.61,1.17c0.96,0,1.79-0.34,2.47-1.03
		c0.69-0.69,1.03-1.51,1.03-2.47c0-0.96-0.34-1.79-1.03-2.47s-1.51-1.03-2.47-1.03c-1.2,0-2.23-0.43-3.09-1.28
		c-0.85-0.86-1.28-1.89-1.28-3.09s0.43-2.24,1.28-3.09c0.86-0.86,1.88-1.28,3.09-1.28c0.76,0,1.5,0.2,2.2,0.59
		c0.7,0.39,1.23,0.92,1.58,1.58c0.09,0.17,0.13,0.33,0.13,0.47c0,0.23-0.09,0.44-0.28,0.6s-0.4,0.25-0.64,0.25
		c-0.19,0-0.56-0.29-1.1-0.88c-0.54-0.59-1.17-0.88-1.9-0.88c-0.72,0-1.34,0.26-1.85,0.77c-0.51,0.51-0.77,1.13-0.77,1.86
		s0.26,1.34,0.77,1.86c0.51,0.52,1.13,0.77,1.85,0.77c1.45,0,2.68,0.51,3.71,1.54C435.89,401.32,436.4,402.56,436.4,404z"/>
	<path d="M449.82,392.62c0,0.58-0.29,0.87-0.88,0.87h-4.37v14.88c0,0.59-0.29,0.88-0.87,0.88s-0.87-0.29-0.87-0.88v-14.88h-4.37
		c-0.59,0-0.88-0.29-0.88-0.87c0-0.59,0.29-0.88,0.88-0.88h10.49C449.52,391.74,449.82,392.04,449.82,392.62z"/>
	<path d="M467.92,400.49c0,2.42-0.86,4.48-2.57,6.2c-1.71,1.71-3.78,2.57-6.18,2.57c-2.41,0-4.47-0.86-6.18-2.57
		c-1.71-1.71-2.57-3.78-2.57-6.2c0-2.41,0.86-4.47,2.57-6.18c1.71-1.71,3.78-2.57,6.18-2.57c2.41,0,4.47,0.86,6.18,2.57
		C467.06,396.02,467.92,398.08,467.92,400.49z M466.17,400.49c0-1.93-0.69-3.58-2.06-4.95s-3.02-2.06-4.95-2.06
		c-1.93,0-3.58,0.69-4.95,2.06s-2.06,3.02-2.06,4.95c0,1.94,0.69,3.59,2.06,4.96c1.37,1.37,3.02,2.05,4.95,2.05
		c1.93,0,3.58-0.69,4.95-2.05C465.48,404.08,466.17,402.43,466.17,400.49z"/>
	<path d="M480.74,408.37c0,0.23-0.09,0.44-0.27,0.62c-0.18,0.18-0.38,0.27-0.62,0.27c-0.22,0-0.43-0.09-0.61-0.26l-6.88-6.88
		c-0.22-0.21-0.35-0.4-0.39-0.57v6.83c0,0.59-0.29,0.88-0.87,0.88s-0.87-0.29-0.87-0.88v-15.76c0-0.58,0.29-0.87,0.87-0.87h4.38
		c1.45,0,2.69,0.51,3.71,1.54c1.02,1.03,1.54,2.27,1.54,3.71c0,1.45-0.51,2.68-1.53,3.71c-1.02,1.03-2.26,1.54-3.71,1.54l-0.5-0.01
		l5.5,5.51C480.66,407.94,480.74,408.14,480.74,408.37z M479,397.01c0-0.97-0.34-1.79-1.03-2.48c-0.69-0.69-1.51-1.03-2.48-1.03
		h-3.5v7.74c0.08-0.48,0.43-0.72,1.04-0.72h2.46c0.96,0,1.79-0.34,2.48-1.03S479,397.97,479,397.01z"/>
	<path d="M493.59,408.38c0,0.59-0.29,0.88-0.87,0.88h-8.76c-0.23,0-0.44-0.09-0.61-0.26c-0.18-0.18-0.26-0.38-0.26-0.62v-15.75
		c0-0.23,0.09-0.44,0.26-0.61c0.18-0.18,0.38-0.27,0.61-0.27h8.76c0.58,0,0.87,0.29,0.87,0.88c0,0.58-0.29,0.87-0.87,0.87h-7.89
		v6.14h6.13c0.59,0,0.88,0.29,0.88,0.87c0,0.59-0.29,0.88-0.88,0.88h-6.13v6.13h7.89C493.3,407.51,493.59,407.8,493.59,408.38z"/>
</g>
</svg>
