<?xml version="1.0" encoding="UTF-8" standalone="no"?>
<!-- Created with Inkscape (http://www.inkscape.org/) -->

<svg
   xmlns:dc="http://purl.org/dc/elements/1.1/"
   xmlns:cc="http://creativecommons.org/ns#"
   xmlns:rdf="http://www.w3.org/1999/02/22-rdf-syntax-ns#"
   xmlns:svg="http://www.w3.org/2000/svg"
   xmlns="http://www.w3.org/2000/svg"
   xmlns:sodipodi="http://sodipodi.sourceforge.net/DTD/sodipodi-0.dtd"
   xmlns:inkscape="http://www.inkscape.org/namespaces/inkscape"
   version="1.1"
   id="svg2"
   xml:space="preserve"
   width="816"
   height="244.444"
   viewBox="0 0 816 244.444"
   sodipodi:docname="RODZINA EKO.svg"
   inkscape:version="0.92.1 r15371"><metadata
     id="metadata8"><rdf:RDF><cc:Work
         rdf:about=""><dc:format>image/svg+xml</dc:format><dc:type
           rdf:resource="http://purl.org/dc/dcmitype/StillImage" /><dc:title></dc:title></cc:Work></rdf:RDF></metadata><defs
     id="defs6"><clipPath
       clipPathUnits="userSpaceOnUse"
       id="clipPath20"><path
         d="M 0,183.333 H 612 V 0 H 0 Z"
         id="path18"
         inkscape:connector-curvature="0" /></clipPath></defs><sodipodi:namedview
     pagecolor="#ffffff"
     bordercolor="#666666"
     borderopacity="1"
     objecttolerance="10"
     gridtolerance="10"
     guidetolerance="10"
     inkscape:pageopacity="0"
     inkscape:pageshadow="2"
     inkscape:window-width="1920"
     inkscape:window-height="1001"
     id="namedview4"
     showgrid="false"
     inkscape:zoom="0.85"
     inkscape:cx="408"
     inkscape:cy="122.222"
     inkscape:window-x="-9"
     inkscape:window-y="-9"
     inkscape:window-maximized="1"
     inkscape:current-layer="g10" /><g
     id="g10"
     inkscape:groupmode="layer"
     inkscape:label="RODZINA EKO gotowe 2"
     transform="matrix(1.3333333,0,0,-1.3333333,0,244.444)"><g
       id="g12"
       transform="translate(199.4619,75.5771)" /><g
       id="g14"><g
         id="g16"
         clip-path="url(#clipPath20)"><g
           id="g22"
           transform="translate(300.5952,86.748)"><path
             d="m 0,0 c 0,0.543 0.023,4.292 0.012,4.345 -0.607,2.81 -4.088,4.319 -8.011,4.319 -5.41,0 -11.544,-5.139 -11.531,-11.573 0.015,-6.937 5.795,-11.352 11.443,-11.352 3.506,0 7.818,1.826 8.129,5.199 0.054,0.612 -0.019,3.765 -0.019,4.458 z M 2.156,23.815 2.125,-11.64 c 0.075,-1.116 0.134,-2.215 1.503,-2.287 0.615,-0.031 1.519,0.787 2.246,1.484 0.426,0.403 0.837,0.803 0.837,0.803 0,0 -0.883,-2.721 -2.266,-3.423 -1.385,-0.703 -2.938,-0.041 -3.585,0.733 -0.647,0.775 -0.848,2.276 -0.848,2.276 -2.501,-1.984 -3.969,-3.332 -8.666,-3.332 -6.955,0 -13.594,5.012 -13.594,12.3 -0.059,7.981 7.048,13.446 14.062,13.323 4.35,-0.074 6.321,-1.331 7.796,-2.924 L 0.012,6.756 v 14.771 z"
             style="fill:#57722b;fill-opacity:1;fill-rule:nonzero;stroke:none"
             id="path24"
             inkscape:connector-curvature="0" /></g><g
           id="g26"
           transform="translate(315.1982,74.2402)"><path
             d="m 0,0 18.581,21.187 c -15.884,0 -15.347,0.027 -16.988,0.027 -1.322,-0.302 -2.219,-1.38 -2.219,-1.38 L -0.96,19.82 -0.981,22.745 h 22.52 v -0.762 c 0,0 -19.417,-22.309 -20.878,-23.769 0,0 3.12,0.808 6.969,0.433 6.989,-0.682 10.043,-0.39 10.668,-0.11 1.072,0.416 2.279,1.438 2.591,2.266 0.046,-0.269 -0.324,-2.16 -1.825,-2.878 -1.243,-0.596 -3.135,-0.912 -6.186,-0.754 -3.023,0.158 -4.094,0.47 -7.576,0.524 C 2.217,-2.263 1.052,-2.856 -2.635,-2.939 -2.692,-2.939 0,0 0,0"
             style="fill:#57722b;fill-opacity:1;fill-rule:nonzero;stroke:none"
             id="path28"
             inkscape:connector-curvature="0" /></g><g
           id="g30"
           transform="translate(352.1074,72.2188)"><path
             d="M 0,0 C 1.786,0.022 3.355,3.22 3.28,2.882 3.142,2.258 2.436,-0.849 -0.469,-0.849 c -2.904,0 -2.725,2.836 -2.725,2.836 v 20.98 l -3.369,-2.552 -0.116,0.523 4.42,3.835 1.193,-0.006 c 0,0 0.032,-21.284 0.032,-22.712 C -1.034,0.626 -0.806,0 0,0 m -3.174,34.37 c -0.023,0.639 0.511,1.15 1.353,1.15 0.748,0 1.277,-0.511 1.277,-1.15 0,-0.659 -0.553,-1.171 -1.325,-1.171 -0.794,0 -1.305,0.512 -1.305,1.171"
             style="fill:#57722b;fill-opacity:1;fill-rule:nonzero;stroke:none"
             id="path32"
             inkscape:connector-curvature="0" /></g><g
           id="g34"
           transform="translate(367.6406,89.9912)"><path
             d="m 0,0 c 0,1.021 0.104,4.955 -0.425,5.469 -0.528,0.518 -1.496,0.277 -2.54,-0.384 0,0 -2.098,-1.324 -2.217,-1.166 -0.226,0.298 2.237,2.419 2.973,2.802 0.153,0.075 1.851,1.15 3.681,-0.198 1.117,-0.929 0.961,-2.44 0.961,-2.44 L 2.425,3.72 c 1.426,2.346 5.169,3.496 9.924,3.496 3.983,0 8.361,-1.987 8.361,-10.454 L 20.619,-14.05 c 0,0 -0.01,-1.368 0.046,-1.771 0.074,-0.525 0.196,-1.771 1.221,-1.543 0.864,0.192 2.886,2.773 2.886,2.773 0,0 -0.459,-3.98 -3.885,-3.789 -2.381,0.108 -2.605,1.608 -2.619,2.344 -0.015,1.029 -0.091,12.25 -0.091,12.25 0,3.98 -0.714,9.805 -7.384,9.968 C 7.346,6.267 3.318,4.486 2.425,1.987 2.188,1.429 2.099,-2.418 2.099,-3.187 l 0.012,-15.221 h -2.114 z"
             style="fill:#57722b;fill-opacity:1;fill-rule:nonzero;stroke:none"
             id="path36"
             inkscape:connector-curvature="0" /></g><g
           id="g38"
           transform="translate(447.5381,82.6396)"><path
             d="m 0,0 c 1.045,-6.178 7.271,-10.481 16.562,-10.481 0,0 5.418,-0.018 8.664,1.928 2.62,1.574 3.841,3.395 3.841,5.187 0,1.354 -1.052,2.014 -2.04,2.125 -0.933,0.056 -1.938,-0.575 -1.92,-1.322 0.026,-1.133 1.975,-0.968 1.975,-0.968 0,0 -2.457,-0.827 -2.568,0.828 -0.111,1.599 1.764,2.236 2.585,2.18 1.193,-0.084 2.416,-0.746 2.638,-2.676 0.027,-2.814 -2.576,-4.928 -4.292,-5.974 -1.722,-1.049 -4.447,-2.378 -9.562,-2.378 -12.766,0 -18.439,5.24 -18.439,12.477 0,7.236 8.648,12.924 15.641,13.144 6.993,0.221 17.218,-2.704 17.417,-2.704 0.197,0 -6.695,-7.007 -12.766,-9.434 C 11.664,-0.496 0,0 0,0"
             style="fill:#57722b;fill-opacity:1;fill-rule:nonzero;stroke:none"
             id="path40"
             inkscape:connector-curvature="0" /></g><g
           id="g42"
           transform="translate(488.3438,87.4385)"><path
             d="m 0,0 0.308,-0.098 c 0,0 3.004,3.116 3.838,3.959 l 5.647,5.698 h 3.196 c 0,0 -1.475,-0.897 -2.524,-1.933 -1.05,-1.033 -8.91,-8.546 -8.91,-8.546 5.602,-0.723 7.371,-7.179 8.153,-9.184 2.945,-7.036 5.524,-4.725 5.69,-4.552 1.521,1.552 -0.358,2.253 -0.358,2.253 0,0 2.035,0.083 1.477,-2.107 -0.424,-1.12 -1.495,-1.868 -4.623,-1.428 -2.501,0.35 -3.039,1.839 -3.796,3.224 -0.761,1.39 -2.561,10.175 -8.074,10.718 L 0,-16.064 h -3.227 c 0,0 1.12,0.97 1.12,2.11 0,1.76 -0.024,34.531 -0.024,34.531 l 2.111,2.61 z"
             style="fill:#57722b;fill-opacity:1;fill-rule:nonzero;stroke:none"
             id="path44"
             inkscape:connector-curvature="0" /></g><g
           id="g46"
           transform="translate(219.7476,105.0283)"><path
             d="m 0,0 c 0,0 -0.023,-29.796 0.021,-30.686 0.045,-0.887 -2.21,-2.98 -2.21,-2.98 l 5.428,0.021 c 0,0 -1.14,1.532 -1.117,2.959 0.022,1.427 0,27.727 0,29.236 0,1.513 1.027,3.354 1.027,3.354 z"
             style="fill:#57722b;fill-opacity:1;fill-rule:nonzero;stroke:none"
             id="path48"
             inkscape:connector-curvature="0" /></g><g
           id="g50"
           transform="translate(213.8804,100.9863)"><path
             d="m 0,0 c 0,0 0.686,-0.027 1.459,-0.581 0.694,-0.6 1.11,-0.998 1.043,-1.847 C 2.435,-3.276 1.615,-4.16 0.299,-4.553 -2.807,-5.215 -4.287,-4.1 -5.091,-3.063 -6.833,-0.144 -5.098,3.647 -3.2,5.449 0.195,8.781 6.392,9.622 10.434,9.627 24.72,9.522 26.792,1.111 27.009,-3.946 c 0.023,-2.088 -0.685,-4.745 -2.762,-7.015 -4.385,-4.626 -9.684,-5.124 -9.625,-5.261 2.65,-0.524 7.816,-5.352 10.027,-8.25 2.211,-2.896 4.69,-9.412 4.69,-9.412 0,0 2.599,-4.863 6.253,-3.808 0.052,0.117 1.14,0.421 0.938,1.635 -0.202,1.214 -1.689,1.766 -1.689,1.766 0,0 1.547,0.636 2.784,-1.269 0.759,-1.352 0.179,-2.338 0.179,-2.338 0,0 -0.343,-1.096 -2.234,-1.78 -1.891,-0.681 -3.619,-0.35 -3.619,-0.35 0,0 -3.11,0.176 -5.873,3.041 -2.553,2.888 -3.447,4.13 -5.024,9.041 -1.012,4.745 -2.993,7.384 -2.993,7.384 0,0 -0.551,1.43 -4.556,3.437 -2.099,1.068 -1.86,1.014 -2.903,1.345 6.015,0.964 9.17,2.648 11.047,5.545 1.653,2.911 1.46,3.53 1.526,6.289 C 22.818,0.688 19.237,6.788 10.602,7.395 7.549,7.602 4.952,7.125 2.696,6.566 0.478,5.791 -1.25,5.461 -3.111,2.901 -4.704,0.163 -4.079,-1.579 -3.006,-2.595 -1.935,-3.608 -0.356,-3.669 0.686,-2.758 1.788,-1.407 0,0 0,0"
             style="fill:#57722b;fill-opacity:1;fill-rule:nonzero;stroke:none"
             id="path52"
             inkscape:connector-curvature="0" /></g><g
           id="g54"
           transform="translate(476.1885,93.9502)"><path
             d="m 0,0 c -2.908,0.996 -8.519,1.656 -8.519,1.656 l -4.133,-4.967 c 0,0 8.813,2.568 12.652,3.311"
             style="fill:#68af23;fill-opacity:1;fill-rule:nonzero;stroke:none"
             id="path56"
             inkscape:connector-curvature="0" /></g><g
           id="g58"
           transform="translate(467.123,95.8545)"><path
             d="m 0,0 c -2.43,0.44 -4.404,0.412 -4.829,0.277 -1.301,-0.965 -4.715,-5.987 -5.054,-7.144 3.391,1.017 5.422,1.461 5.422,1.461 0,0 2.343,3.339 4.461,5.406"
             style="fill:#79c9d7;fill-opacity:1;fill-rule:nonzero;stroke:none"
             id="path60"
             inkscape:connector-curvature="0" /></g><g
           id="g62"
           transform="translate(461.166,96.0762)"><path
             d="m 0,0 c 0,0 -3.05,0.028 -4.802,-1.074 -1.159,-1.189 -3.954,-7.59 -3.954,-7.59 0,0 1.95,0.883 3.954,1.435 C -2.965,-3.864 0,0 0,0"
             style="fill:#68af23;fill-opacity:1;fill-rule:nonzero;stroke:none"
             id="path64"
             inkscape:connector-curvature="0" /></g><g
           id="g66"
           transform="translate(455.4639,94.668)"><path
             d="m 0,0 c -1.637,0.167 -7.89,-3.364 -8.033,-8.854 1.755,0.911 4.216,1.544 4.216,1.544 0,0 1.332,3.09 3.817,7.31"
             style="fill:#ffd741;fill-opacity:1;fill-rule:nonzero;stroke:none"
             id="path68"
             inkscape:connector-curvature="0" /></g><g
           id="g70"
           transform="translate(447.5283,83.3682)"><path
             d="m 0,0 c -0.015,0.275 -0.108,1.612 -0.108,1.612 0.908,0.722 4.354,1.549 4.354,1.549 0,0 5,-1.901 9.403,-2.344 C 6.873,-0.592 0.017,-0.276 0,0"
             style="fill:#68af23;fill-opacity:1;fill-rule:nonzero;stroke:none"
             id="path72"
             inkscape:connector-curvature="0" /></g><g
           id="g74"
           transform="translate(452.9824,86.9453)"><path
             d="m 0,0 c 0.988,-0.607 5.619,-2.097 9.632,-2.54 2.03,0.223 4.656,1.793 4.656,1.793 C 9.206,-0.276 4.63,1.517 4.63,1.517 4.63,1.517 1.777,0.825 0,0"
             style="fill:#79c9d7;fill-opacity:1;fill-rule:nonzero;stroke:none"
             id="path76"
             inkscape:connector-curvature="0" /></g><g
           id="g78"
           transform="translate(468.0313,86.6143)"><path
             d="M 0,0 C 0,0 2.257,0.909 5.254,3.53 3.107,3.254 0.873,3.725 -0.847,4.273 c -3.68,-0.91 -3.621,-0.91 -8.584,-2.124 0,0 5.562,-2.26 9.431,-2.149"
             style="fill:#68af23;fill-opacity:1;fill-rule:nonzero;stroke:none"
             id="path80"
             inkscape:connector-curvature="0" /></g><g
           id="g82"
           transform="translate(468.0703,91.2754)"><path
             d="m 0,0 c 4.63,1.572 8.92,2.372 8.92,2.372 0,0 -2.229,-2.538 -3.246,-3.008 C 5.647,-0.718 1.354,-0.908 0,0"
             style="fill:#ffd741;fill-opacity:1;fill-rule:nonzero;stroke:none"
             id="path84"
             inkscape:connector-curvature="0" /></g><g
           id="g86"
           transform="translate(150.5161,115.498)"><path
             d="m 0,0 c 13.321,0 24.119,-9.782 24.119,-21.851 0,-12.066 -10.798,-21.847 -24.119,-21.847 -13.322,0 -24.12,9.781 -24.12,21.847 C -24.12,-9.782 -13.322,0 0,0"
             style="fill:#3fa631;fill-opacity:1;fill-rule:nonzero;stroke:none"
             id="path88"
             inkscape:connector-curvature="0" /></g><g
           id="g90"
           transform="translate(190.209,84.708)"><path
             d="m 0,0 c -1.125,-7.286 -8.568,-12.327 -16.627,-11.258 -8.059,1.069 -13.68,7.838 -12.556,15.122 1.124,7.285 8.569,12.326 16.628,11.26 C -4.496,14.055 1.125,7.284 0,0"
             style="fill:#ffd741;fill-opacity:1;fill-rule:nonzero;stroke:none"
             id="path92"
             inkscape:connector-curvature="0" /></g><g
           id="g94"
           transform="translate(180.1294,70.6396)"><path
             d="m 0,0 c 0,-5.235 -4.819,-9.476 -10.765,-9.476 -5.945,0 -10.765,4.241 -10.765,9.476 0,5.234 4.82,9.477 10.765,9.477 C -4.819,9.477 0,5.234 0,0"
             style="fill:#6bc7e7;fill-opacity:1;fill-rule:nonzero;stroke:none"
             id="path96"
             inkscape:connector-curvature="0" /></g><g
           id="g98"
           transform="translate(535.835,84.1396)"><path
             d="m 0,0 c 0,-7.057 -6.457,-12.779 -14.425,-12.779 -7.968,0 -14.428,5.722 -14.428,12.779 0,7.06 6.426,12.846 14.396,12.846 C -6.492,12.846 0,7.06 0,0"
             style="fill:#f6ec77;fill-opacity:1;fill-rule:nonzero;stroke:none"
             id="path100"
             inkscape:connector-curvature="0" /></g><g
           id="g102"
           transform="translate(272.3975,84.2441)"><path
             d="m 0,0 c 0,-7.114 -6.225,-12.882 -13.902,-12.882 -7.679,0 -13.902,5.768 -13.902,12.882 0,7.113 6.17,12.741 13.847,12.741 C -6.277,12.741 0,7.113 0,0"
             style="fill:#65a2ea;fill-opacity:1;fill-rule:nonzero;stroke:none"
             id="path104"
             inkscape:connector-curvature="0" /></g><g
           id="g106"
           transform="translate(256.0503,86.3867)"><path
             d="m 0,0 c 0,-0.688 -0.529,-1.158 -1.33,-1.158 -0.375,0 -0.965,0.199 -1.222,0.626 -0.071,0.112 -1.542,-0.199 -1.808,1.664 0.591,-1.418 1.551,-1.226 1.637,-1.187 0.086,0.035 0.065,0.02 0.093,0.136 0,0 -1.129,0.067 -1.089,1.303 0.513,-1.177 1.169,-0.883 1.284,-0.78 0.239,0.217 0.709,0.491 1.083,0.491 C -0.549,1.095 0,0.683 0,0"
             style="fill:#1a171b;fill-opacity:1;fill-rule:nonzero;stroke:none"
             id="path108"
             inkscape:connector-curvature="0" /></g><g
           id="g110"
           transform="translate(262.5869,86.3867)"><path
             d="m 0,0 c 0,-0.688 0.527,-1.158 1.33,-1.158 0.373,0 0.965,0.199 1.222,0.626 0.07,0.112 1.541,-0.199 1.81,1.664 C 3.769,-0.286 2.809,-0.094 2.721,-0.055 2.635,-0.02 2.658,-0.035 2.63,0.081 c 0,0 1.13,0.067 1.09,1.303 C 3.206,0.207 2.55,0.501 2.435,0.604 2.194,0.821 1.725,1.095 1.352,1.095 0.55,1.095 0,0.683 0,0"
             style="fill:#1a171b;fill-opacity:1;fill-rule:nonzero;stroke:none"
             id="path112"
             inkscape:connector-curvature="0" /></g><g
           id="g114"
           transform="translate(256.8428,80.3027)"><path
             d="m 0,0 c 0,0 0.379,-1.439 2.367,-1.129 1.829,0.286 2.032,2.626 2.032,2.626 0,0 0.295,-2.807 -2.307,-2.955 C -0.011,-1.573 0,0 0,0"
             style="fill:#1a171b;fill-opacity:1;fill-rule:nonzero;stroke:none"
             id="path116"
             inkscape:connector-curvature="0" /></g><g
           id="g118"
           transform="translate(516.5957,86.0732)"><path
             d="m 0,0 c 0,-0.524 -0.528,-0.952 -1.184,-0.952 -0.652,0 -1.183,0.428 -1.183,0.952 0,0.526 0.531,0.953 1.183,0.953 C -0.528,0.953 0,0.526 0,0"
             style="fill:#000000;fill-opacity:1;fill-rule:nonzero;stroke:none"
             id="path120"
             inkscape:connector-curvature="0" /></g><g
           id="g122"
           transform="translate(528.2305,85.8887)"><path
             d="m 0,0 c 0,-0.525 -0.529,-0.952 -1.182,-0.952 -0.654,0 -1.184,0.427 -1.184,0.952 0,0.524 0.53,0.952 1.184,0.952 C -0.529,0.952 0,0.524 0,0"
             style="fill:#000000;fill-opacity:1;fill-rule:nonzero;stroke:none"
             id="path124"
             inkscape:connector-curvature="0" /></g><g
           id="g126"
           transform="translate(519.3408,78.9287)"><path
             d="m 0,0 c 0,0 0.825,-1.166 3.508,-0.344 2.73,0.839 2.263,2.897 2.263,2.897 0,0 0.739,-2.447 -2.575,-3.263 C 0.318,-1.418 0,0 0,0"
             style="fill:#1a171b;fill-opacity:1;fill-rule:nonzero;stroke:none"
             id="path128"
             inkscape:connector-curvature="0" /></g><g
           id="g130"
           transform="translate(173.7061,88.9121)"><path
             d="M 0,0 C 0,0 -0.491,1.908 -2.258,2.071 -2.933,2.168 -3.622,2.119 -4.503,1.862 -5.117,1.714 -6.607,1.441 -6.967,3.119 -6.968,3.006 -7.093,1.161 -5.248,1.538 -5.18,1.553 -5.643,1.433 -5.643,1.433 -7.881,0.599 -7.675,2.22 -7.675,2.22 c 0,0 -0.368,-1.959 1.915,-1.141 2.033,0.51 2.124,0.626 3.31,0.581 C -0.729,1.6 0,0 0,0"
             style="fill:#1a171b;fill-opacity:1;fill-rule:nonzero;stroke:none"
             id="path132"
             inkscape:connector-curvature="0" /></g><g
           id="g134"
           transform="translate(178.2842,88.7178)"><path
             d="M 0,0 C 0,0 1.314,1.542 2.989,0.997 3.646,0.824 4.25,0.512 4.933,-0.065 5.421,-0.44 6.648,-1.269 7.738,0.115 7.688,0.009 6.962,-1.712 5.462,-0.648 5.405,-0.609 5.769,-0.901 5.769,-0.901 7.42,-2.529 7.973,-0.979 7.973,-0.979 c 0,0 -0.559,-1.92 -2.257,-0.287 C 4.104,-0.011 4.074,0.13 2.979,0.553 1.39,1.17 0,0 0,0"
             style="fill:#1a171b;fill-opacity:1;fill-rule:nonzero;stroke:none"
             id="path136"
             inkscape:connector-curvature="0" /></g><g
           id="g138"
           transform="translate(175.1553,83.8789)"><path
             d="m 0,0 c 0,0 -0.299,1.754 -1.442,1.327 -1.399,-0.522 0.296,-2.672 1.071,-3.033 0.314,-0.146 3.252,1.063 2.484,2.182 C 1.303,1.47 0,0 0,0"
             style="fill:#1a171b;fill-opacity:1;fill-rule:nonzero;stroke:none"
             id="path140"
             inkscape:connector-curvature="0" /></g><g
           id="g142"
           transform="translate(165.2261,71.4248)"><path
             d="m 0,0 c 0,0 0.297,-0.827 -0.403,-2.083 -0.699,-1.253 -1.816,-1.503 -1.816,-1.503 0,0 1.474,0.18 2.099,1.393 C 0.505,-0.979 0,0 0,0"
             style="fill:#1a171b;fill-opacity:1;fill-rule:nonzero;stroke:none"
             id="path144"
             inkscape:connector-curvature="0" /></g><g
           id="g146"
           transform="translate(167.7085,73.2539)"><path
             d="m 0,0 c 0,0 0.932,0.123 1.829,1.269 0.895,1.142 0.633,2.178 0.633,2.178 0,0 0.49,-1.301 -0.401,-2.363 C 1.172,0.021 0,0 0,0"
             style="fill:#1a171b;fill-opacity:1;fill-rule:nonzero;stroke:none"
             id="path148"
             inkscape:connector-curvature="0" /></g><g
           id="g150"
           transform="translate(172.4468,69.1367)"><path
             d="m 0,0 c 0,-0.383 -0.34,-0.69 -0.76,-0.69 -0.418,0 -0.76,0.307 -0.76,0.69 0,0.381 0.342,0.688 0.76,0.688 C -0.34,0.688 0,0.381 0,0"
             style="fill:#1a171b;fill-opacity:1;fill-rule:nonzero;stroke:none"
             id="path152"
             inkscape:connector-curvature="0" /></g><g
           id="g154"
           transform="translate(136.4009,92.7783)"><path
             d="M 0,0 C 0,0 0.258,1.824 2.212,3.313 4.168,4.803 5.619,4.196 5.652,4.521 5.684,4.841 3.832,5.119 1.998,3.647 0.166,2.178 0,0 0,0"
             style="fill:#1a171b;fill-opacity:1;fill-rule:nonzero;stroke:none"
             id="path156"
             inkscape:connector-curvature="0" /></g><g
           id="g158"
           transform="translate(158.0313,105.0059)"><path
             d="m 0,0 c 0,0 -1.917,0.476 -4.149,-0.632 -2.231,-1.109 -2.177,-2.582 -2.512,-2.487 -0.335,0.096 0.093,1.787 2.259,2.798 C -2.236,0.688 0,0 0,0"
             style="fill:#1a171b;fill-opacity:1;fill-rule:nonzero;stroke:none"
             id="path160"
             inkscape:connector-curvature="0" /></g><g
           id="g162"
           transform="translate(153.1631,87.8711)"><path
             d="M 0,0 C 0,0 1.839,1.194 2.339,3.686 2.84,6.175 1.346,7.11 1.678,7.31 2.012,7.509 3.377,6.051 2.827,3.677 2.277,1.307 0,0 0,0"
             style="fill:#1a171b;fill-opacity:1;fill-rule:nonzero;stroke:none"
             id="path164"
             inkscape:connector-curvature="0" /></g><g
           id="g166"
           transform="translate(416.2637,86.7988)"><path
             d="m 0,0 c 0,0.543 0.026,4.294 0.015,4.345 -0.608,2.811 -4.088,4.321 -8.011,4.321 -5.413,0 -11.547,-5.137 -11.532,-11.574 0.014,-6.938 5.793,-11.352 11.442,-11.352 3.507,0 7.817,1.826 8.128,5.203 0.057,0.609 -0.016,3.759 -0.016,4.453 z m 2.111,10.473 0.014,-22.112 c 0.077,-1.116 0.136,-2.216 1.504,-2.286 0.616,-0.031 1.52,0.786 2.246,1.482 0.429,0.405 0.838,0.804 0.838,0.804 0,0 -0.883,-2.719 -2.265,-3.424 -1.388,-0.703 -2.94,-0.038 -3.586,0.735 -0.647,0.774 -0.847,2.276 -0.847,2.276 -2.501,-1.986 -3.97,-3.332 -8.667,-3.332 -6.955,0 -13.594,5.012 -13.594,12.297 -0.059,7.981 7.048,13.448 14.064,13.327 4.348,-0.078 6.319,-1.331 7.792,-2.927 L 0.015,6.756 v 1.665 z"
             style="fill:#57722b;fill-opacity:1;fill-rule:nonzero;stroke:none"
             id="path168"
             inkscape:connector-curvature="0" /></g></g></g></g></svg>