<?xml version="1.0" encoding="UTF-8" standalone="no"?>
<!-- Created with Inkscape (http://www.inkscape.org/) -->

<svg
   xmlns:dc="http://purl.org/dc/elements/1.1/"
   xmlns:cc="http://creativecommons.org/ns#"
   xmlns:rdf="http://www.w3.org/1999/02/22-rdf-syntax-ns#"
   xmlns:svg="http://www.w3.org/2000/svg"
   xmlns="http://www.w3.org/2000/svg"
   xmlns:sodipodi="http://sodipodi.sourceforge.net/DTD/sodipodi-0.dtd"
   xmlns:inkscape="http://www.inkscape.org/namespaces/inkscape"
   version="1.1"
   id="svg10"
   xml:space="preserve"
   width="2804.9277"
   height="642.22412"
   viewBox="0 0 2804.9277 642.22412"
   sodipodi:docname="wieloszop-logo.svg"
   inkscape:version="0.92.3 (2405546, 2018-03-11)"><metadata
     id="metadata16"><rdf:RDF><cc:Work
         rdf:about=""><dc:format>image/svg+xml</dc:format><dc:type
           rdf:resource="http://purl.org/dc/dcmitype/StillImage" /><dc:title></dc:title></cc:Work></rdf:RDF></metadata><defs
     id="defs14" /><sodipodi:namedview
     pagecolor="#ffffff"
     bordercolor="#666666"
     borderopacity="1"
     objecttolerance="10"
     gridtolerance="10"
     guidetolerance="10"
     inkscape:pageopacity="0"
     inkscape:pageshadow="2"
     inkscape:window-width="1920"
     inkscape:window-height="1002"
     id="namedview12"
     showgrid="false"
     fit-margin-top="0"
     fit-margin-left="0"
     fit-margin-right="0"
     fit-margin-bottom="0"
     inkscape:zoom="0.36435876"
     inkscape:cx="1486.3577"
     inkscape:cy="564.82172"
     inkscape:window-x="0"
     inkscape:window-y="0"
     inkscape:window-maximized="1"
     inkscape:current-layer="g20" /><g
     id="g18"
     inkscape:groupmode="layer"
     inkscape:label="ink_ext_XXXXXX"
     transform="matrix(1.3333333,0,0,-1.3333333,104.7278,1236.4105)"><g
       id="g20"
       transform="scale(0.1)"><path
         style="fill:#231f20;fill-opacity:1;fill-rule:nonzero;stroke:none;stroke-width:0.99999994"
         d="m 492.59978,8375.4103 c -84.03067,-0.2515 -145.49318,-48.2893 -172.83698,-134.7656 -51.06997,-161.28 -56.3223,-325.1267 -20.1123,-490.1367 28.85003,-131.6599 87.99841,-249.361 171.10846,-356.001 -5.12003,-7.87 -8.8329,-14.262 -13.2129,-20.332 C 241.69605,7073.655 102.003,6741.372 39.962998,6376.382 c -5.22998,-30.87 -1.11645,-55.1988 19.64355,-80.2588 225.030002,-271.54 488.133762,-498.6134 792.553762,-676.5234 261.93999,-153.0801 542.85589,-252.0621 847.04599,-274.2921 27.7999,-2.0199 55.4101,-3.0606 82.9101,-3.7206 v -0.073 c 0.23,0.04 0.5024,0.029 0.7324,0.029 0.27,0 0.5018,0.011 0.7617,-0.029 v 0.073 c 27.54,0.66 55.0709,1.7007 82.8809,3.7206 304.18,22.23 585.1498,121.212 847.0899,274.2921 304.4099,177.91 567.5197,404.9834 792.5097,676.5234 20.8001,25.06 24.889,49.3888 19.6289,80.2588 -62.04,364.99 -201.7084,697.273 -417.5683,997.793 -4.33,6.07 -8.0883,12.462 -13.1982,20.332 83.0999,106.64 142.2183,224.3411 171.1083,356.001 36.17,165.01 30.9484,328.8567 -20.1416,490.1367 -31.25,98.8301 -107.0565,147.4392 -210.1465,131.9092 -191.61,-28.82 -366.1182,-98.3195 -508.1982,-233.9795 -47.2,-45.03 -86.4289,-98.389 -132.1289,-151.2891 -204.2801,96.93 -408.406,146.3784 -611.836,149.2383 v 0.073 c -0.2599,0 -0.4917,-0.044 -0.7617,-0.044 -0.23,0 -0.5024,0.044 -0.7324,0.044 v -0.073 c -203.43,-2.8599 -407.5853,-52.3083 -611.8653,-149.2383 -45.69,52.9001 -84.9256,106.2591 -132.0556,151.2891 -142.13009,135.66 -316.65759,205.1595 -508.22757,233.9795 -12.8913,1.9413 -25.3638,2.8924 -37.36815,2.8564 z m 7.30958,-61.1865 c 7.58512,0.104 15.27247,-0.4554 22.96875,-1.6992 188.7899,-30.48 360.1101,-99.439 495.41009,-240.249 32.96,-34.35 61.0732,-73.3749 94.4531,-113.9649 -37.2799,-21.69 -69.5466,-40.4356 -104.5165,-60.8056 -59.09999,69.75 -129.07159,122.7981 -214.10159,152.5781 -41.41,14.52 -84.2428,26.462 -127.3828,34.292 -63.12,11.49 -125.70908,-24.9923 -143.7891,-86.5722 -19.59,-66.69 -27.48923,-132.2307 -24.1992,-196.6407 h -0.74708 c 0,0 0.28065,-6.2456 1.64063,-17.4756 6.42,-75.9699 29.27632,-150.1305 70.9863,-221.8506 10.29,-17.66 7.54343,-40.6263 -7.01655,-54.9462 -16.73003,-16.42 -30.6708,-35.6647 -46.01078,-53.5548 -1.59,-1.8199 -3.95385,-3.1105 -9.21382,-7.0605 -109.59,146.23 -165.96908,307.6865 -170.03911,487.6465 -2.19997,100.68 9.08888,199.5092 42.12893,295.2392 17.82375,51.5376 66.33263,84.3358 119.42873,85.0635 z m 2565.87894,0 c 53.1085,-0.7277 101.6343,-33.5259 119.458,-85.0635 33.04,-95.73 44.3496,-194.5592 42.0996,-295.2392 -4.06,-179.96 -60.4498,-341.4165 -170.0098,-487.6465 -5.2599,3.95 -7.6231,5.2106 -9.2431,7.0605 -15.6401,18.2 -29.7922,37.8209 -46.9922,54.5508 -18.7,18.1301 -18.3849,32.6158 -5.2149,55.3858 41.2101,71.29 63.7653,144.945 70.1954,220.415 1.33,11.23 1.5967,17.4756 1.5967,17.4756 h -0.7325 c 3.29,64.41 -4.6138,129.9507 -24.2139,196.6407 -18.0799,61.5799 -80.6143,98.0622 -143.7744,86.5722 -43.0999,-7.83 -85.8942,-19.772 -127.3242,-34.292 -85.08,-29.78 -155.0701,-82.8281 -214.1602,-152.5781 -34.9299,20.37 -67.1466,39.1156 -104.5165,60.8056 33.37,40.59 61.4971,79.6149 94.4971,113.9649 135.2999,140.81 306.5761,209.769 495.3661,240.249 7.6976,1.2438 15.3818,1.8032 22.9688,1.6992 z M 619.10361,7476.6408 c 5.7401,-8.91 11.6604,-17.8452 17.9004,-26.8653 182.0801,-264.2599 495.53899,-404.9699 815.66899,-382.5 96.47,6.7301 195.2174,10.2979 295.7373,10.2979 118.38,0 234.1778,-4.9189 346.7579,-14.209 301.83,-25.02 601.2873,92.5175 790.7373,328.8575 22.9999,28.6999 43.1485,57.0089 60.6884,84.4189 222.56,-256.51 377.1039,-553.1931 469.4239,-886.7432 7.97,-28.96 14.678,-58.2765 21.958,-87.4365 -69.4,66.89 -201.7979,142.6722 -302.7978,215.7422 -60.99,44.08 -198.0114,102.3925 -267.8614,130.3125 -323.02,129.11 -668.4481,46.8935 -815.2881,-102.4365 -97.67,-99.32 -145.3734,-219.2509 -101.7334,-360.3809 91.74,-169.92 383.0077,-89.221 628.6377,-108.5009 191.07,-14.94 343.291,-175.5831 337.251,-367.1631 -1.63,-52.35 -15.3621,-95.3761 -44.9121,-116.2061 -182.47,-128.45 -377.4656,-232.1544 -591.2256,-302.9444 -161.37,-53.48 -328.9773,-83.5433 -497.1973,-87.3633 -168.22,3.82 -335.8273,33.8833 -497.1973,87.3633 -213.76,70.79 -408.65769,174.4944 -591.13769,302.9444 -29.62,20.83 -43.33,63.8561 -45,116.2061 -6.04,191.58 146.181,352.2231 337.25103,367.1631 245.63996,19.2799 536.89766,-61.4191 628.63766,108.5009 43.68,141.13 -4.0695,261.0609 -101.6895,360.3809 -146.85,149.33 -492.292,231.5465 -815.33199,102.4365 -69.87,-27.92 -206.87203,-86.2325 -267.83203,-130.3125 -101.01998,-73.07 -233.41718,-148.8522 -302.82713,-215.7422 7.29,29.16 13.99192,58.4765 22.00192,87.4365 92.31998,333.5501 246.82989,630.2332 469.37984,886.7432 z m 1084.79019,-1097.71 c -30.15,0 -54.6027,-18.8576 -62.1827,-48.0176 -7.59,-29.2 4.495,-57.5554 30.835,-72.2753 l 84.4482,-47.3145 v -151.6846 c -74.54,-56.62 -179.9029,-50.2465 -246.7529,15.4835 l -73.6084,72.3339 c -9.9501,9.61 -25.8765,9.4892 -35.5665,-0.3808 -9.6799,-9.9101 -9.5584,-25.8218 0.3516,-35.5518 l 73.5938,-72.2607 c 44.76,-44 104.3393,-68.2178 167.7392,-68.2178 49.6101,0 99.0624,16.3272 140.1123,46.1572 40.9601,-29.83 90.5084,-46.1572 140.0684,-46.1572 63.43,0 123.0286,24.2178 167.7685,68.2178 l 73.6085,72.2607 c 9.8899,9.73 9.9922,25.6417 0.3223,35.5518 -9.7601,9.9499 -25.6418,10.0269 -35.5518,0.3369 l -73.5938,-72.29 c -66.91,-65.76 -172.2429,-72.1035 -246.7529,-15.4835 v 151.6846 l 84.4629,47.3145 c 26.34,14.7199 38.4064,43.0753 30.7764,72.2753 -7.59,29.16 -31.9794,48.0176 -62.1094,48.0176 z"
         id="path24"
         inkscape:connector-curvature="0" /><g
         transform="matrix(29.818165,0,0,29.818165,3564.8187,2272.0042)"
         inkscape:label="ink_ext_XXXXXX"
         id="g212"><g
           transform="scale(0.1)"
           id="g214"><path
             inkscape:connector-curvature="0"
             id="path216"
             style="fill:#231f20;fill-opacity:1;fill-rule:nonzero;stroke:none"
             d="m 1002.77,1351.09 h -0.72 c -26.737,86.73 -54.206,173.46 -80.945,259.48 h -74.453 c -26.015,-86.02 -52.043,-172.75 -78.066,-259.48 h -0.723 c -26.738,89.62 -54.211,179.25 -80.937,269.6 h -83.86 c 40.489,-122.87 81.68,-245.75 122.168,-368.62 h 77.325 c 26.75,87.45 52.773,174.91 79.511,263.09 h 0.723 c 27.473,-88.18 54.934,-175.64 83.125,-263.09 h 76.602 c 39.76,122.87 79.51,245.75 119.99,368.62 h -80.96 c -26.02,-90.35 -52.77,-179.98 -78.78,-269.6" /><path
             inkscape:connector-curvature="0"
             id="path218"
             style="fill:#231f20;fill-opacity:1;fill-rule:nonzero;stroke:none"
             d="m 1437.2,1783.31 c -26.75,0 -49.16,-21.68 -49.16,-49.15 0,-27.46 22.41,-49.14 49.88,-49.14 26.74,0 49.14,21.68 49.14,49.14 0,27.47 -22.4,49.15 -49.86,49.15" /><path
             inkscape:connector-curvature="0"
             id="path220"
             style="fill:#231f20;fill-opacity:1;fill-rule:nonzero;stroke:none"
             d="m 1397.43,1252.07 h 79.51 v 368.62 h -79.51 v -368.62" /><path
             inkscape:connector-curvature="0"
             id="path222"
             style="fill:#231f20;fill-opacity:1;fill-rule:nonzero;stroke:none"
             d="m 1815.94,1471.8 c 3.6,55.65 56.37,94.68 109.12,94.68 53.49,0 104.09,-39.03 105.54,-94.68 z m 112.02,159.01 c -110.59,0 -192.26,-85.29 -192.26,-195.15 0,-110.58 82.4,-193.71 193.71,-193.71 72.28,0 133.71,35.42 166.96,100.47 -23.14,7.23 -45.54,14.45 -68.66,20.96 -20.97,-33.97 -58.56,-56.38 -99.03,-56.38 -60,0 -109.14,44.09 -113.46,104.09 h 293.43 c 0.72,6.5 0.72,13.01 0.72,19.51 0,110.58 -63.61,200.21 -181.41,200.21" /><path
             inkscape:connector-curvature="0"
             id="path224"
             style="fill:#231f20;fill-opacity:1;fill-rule:nonzero;stroke:none"
             d="m 2353.69,1252.07 h 79.51 v 540.63 h -79.51 v -540.63" /><path
             inkscape:connector-curvature="0"
             id="path226"
             style="fill:#231f20;fill-opacity:1;fill-rule:nonzero;stroke:none"
             d="m 2889.27,1314.24 c -69.38,0 -117.07,52.02 -117.07,122.14 0,70.84 47.69,122.15 116.36,122.15 69.39,0 117.09,-51.31 117.09,-122.15 0,-70.12 -47.7,-122.14 -116.38,-122.14 z m 0,316.57 c -119.98,0 -196.59,-88.91 -196.59,-194.43 0,-106.25 76.61,-194.43 196.59,-194.43 118.54,0 195.89,88.18 195.89,194.43 0,105.52 -77.35,194.43 -195.89,194.43" /><path
             inkscape:connector-curvature="0"
             id="path228"
             style="fill:#231f20;fill-opacity:1;fill-rule:nonzero;stroke:none"
             d="m 3458.84,1477.57 c -22.41,6.51 -51.32,21.7 -51.32,52.77 0,21.68 31.81,36.86 50.61,36.86 31.07,0 52.02,-14.46 62.14,-44.09 l 67.23,21.69 c -15.91,60.71 -70.84,86.01 -129.37,86.01 -67.24,0 -133.01,-40.47 -133.01,-114.19 0,-125.78 192.26,-86.75 192.26,-159.75 0,-31.08 -30.35,-51.31 -59.25,-51.31 -34.7,0 -65.78,18.8 -75.91,52.75 -22.4,-7.94 -44.8,-15.89 -67.22,-24.56 17.35,-60.72 81.68,-91.8 141.68,-91.8 72.27,0 142.38,38.31 142.38,118.54 0,91.07 -72.28,96.13 -140.22,117.08" /><path
             inkscape:connector-curvature="0"
             id="path230"
             style="fill:#231f20;fill-opacity:1;fill-rule:nonzero;stroke:none"
             d="m 4105.01,1555.64 v 65.05 h -277.55 v -64.33 h 185.75 l -192.24,-241.41 v -62.88 h 289.11 v 63.6 h -195.16 l 190.09,239.97" /><path
             inkscape:connector-curvature="0"
             id="path232"
             style="fill:#231f20;fill-opacity:1;fill-rule:nonzero;stroke:none"
             d="m 4533.64,1314.24 c -69.38,0 -117.08,52.02 -117.08,122.14 0,70.84 47.7,122.15 116.36,122.15 69.4,0 117.09,-51.31 117.09,-122.15 0,-70.12 -47.69,-122.14 -116.37,-122.14 z m 0,316.57 c -119.98,0 -196.59,-88.91 -196.59,-194.43 0,-106.25 76.61,-194.43 196.59,-194.43 118.54,0 195.88,88.18 195.88,194.43 0,105.52 -77.34,194.43 -195.88,194.43" /><path
             inkscape:connector-curvature="0"
             id="path234"
             style="fill:#231f20;fill-opacity:1;fill-rule:nonzero;stroke:none"
             d="m 5152.37,1313.52 c -70.09,0 -119.25,53.46 -119.25,122.14 0,69.38 49.16,122.87 119.25,122.87 70.12,0 118.54,-53.49 118.54,-122.15 0,-69.4 -47.7,-122.86 -118.54,-122.86 z m 13.74,317.29 c -52.05,0 -104.09,-23.14 -131.56,-68.66 h -0.72 v 58.54 h -75.17 v -521.12 h 79.52 v 205.99 h 0.72 c 26.02,-44.09 80.95,-63.61 130.1,-63.61 109.15,0 180.69,88.91 180.69,193.71 0,108.42 -71.54,195.15 -183.58,195.15" /></g></g><rect
         style="fill:none;stroke-width:7.39027596"
         id="rect449"
         width="21036.959"
         height="4816.6812"
         x="-785.4585"
         y="-9273.0791"
         transform="scale(1,-1)" /></g></g></svg>