<?xml version="1.0" encoding="UTF-8" standalone="no"?>
<svg
   xmlns:dc="http://purl.org/dc/elements/1.1/"
   xmlns:cc="http://creativecommons.org/ns#"
   xmlns:rdf="http://www.w3.org/1999/02/22-rdf-syntax-ns#"
   xmlns:svg="http://www.w3.org/2000/svg"
   xmlns="http://www.w3.org/2000/svg"
   xmlns:sodipodi="http://sodipodi.sourceforge.net/DTD/sodipodi-0.dtd"
   xmlns:inkscape="http://www.inkscape.org/namespaces/inkscape"
   width="210mm"
   height="297mm"
   viewBox="0 0 210 297"
   version="1.1"
   id="svg8"
   inkscape:version="1.0 (4035a4fb49, 2020-05-01)"
   sodipodi:docname="rysunek.svg"
   inkscape:export-filename="D:\Users\Tayniak\Desktop\rysunek1.png"
   inkscape:export-xdpi="96"
   inkscape:export-ydpi="96">
  <defs
     id="defs2" />
  <sodipodi:namedview
     inkscape:snap-global="true"
     id="base"
     pagecolor="#ffffff"
     bordercolor="#666666"
     borderopacity="1.0"
     inkscape:pageopacity="0.0"
     inkscape:pageshadow="2"
     inkscape:zoom="0.17818155"
     inkscape:cx="-255.98265"
     inkscape:cy="1139.4946"
     inkscape:document-units="mm"
     inkscape:current-layer="layer1"
     inkscape:document-rotation="0"
     showgrid="false"
     showguides="true"
     inkscape:lockguides="true"
     inkscape:window-width="1465"
     inkscape:window-height="979"
     inkscape:window-x="9"
     inkscape:window-y="2"
     inkscape:window-maximized="0"
     inkscape:guide-bbox="true" />
  <metadata
     id="metadata5">
    <rdf:RDF>
      <cc:Work
         rdf:about="">
        <dc:format>image/svg+xml</dc:format>
        <dc:type
           rdf:resource="http://purl.org/dc/dcmitype/StillImage" />
        <dc:title />
      </cc:Work>
    </rdf:RDF>
  </metadata>
  <g
     inkscape:label="Warstwa 1"
     inkscape:groupmode="layer"
     id="layer1"
     style="display:inline">
    <path
       style="fill:#000000;stroke-width:0.264999;stroke-miterlimit:4;stroke-dasharray:none"
       id="path1003"
       d="m -403.66063,284.82858 c -5.04786,1.12797 -9.4956,3.61935 -13.85137,6.31717 -5.64285,3.69376 -10.14909,8.59621 -13.87076,14.17789 -2.90361,4.9362 -5.74539,9.91873 -7.49835,15.40195 -1.22074,3.81833 -1.41076,5.25407 -2.2219,9.17069 -1.6356,9.84082 -1.6601,19.79529 -0.95727,29.71482 0.6558,8.76289 2.91223,17.13181 6.52117,25.10169 3.20076,6.03253 8.26589,10.26766 13.96052,13.78445 11.60962,5.7357 24.78762,3.5587 37.34074,3.51208 7.55154,-0.46622 12.38504,-4.91404 17.40107,-10.09714 5.42662,-6.40887 9.86937,-13.52689 13.30102,-21.18596 1.66223,-3.84293 3.95859,-7.69979 4.50747,-11.92159 -0.21705,-7.75758 0.18156,-1.95024 -21.20361,-0.919 -0.28496,0.0136 -1.7636,6.82978 -1.86932,7.39025 -1.22237,5.65385 -0.67945,11.124 0.86475,16.62691 2.24863,5.78458 6.29865,10.27428 11.47997,13.53415 3.95712,2.03437 8.35596,2.73766 12.77191,2.70498 23.88981,-0.17666 16.12523,0.9907 27.56436,-1.03974 7.28583,-0.91007 12.30789,-4.63671 17.45841,-9.55449 6.06695,-7.00543 9.26279,-15.95532 11.51759,-24.8233 1.03294,-5.15831 1.98378,-10.40207 2.00382,-15.68621 0.0207,-5.47228 -0.95892,-10.81911 -1.93925,-16.17408 -2.65962,-11.0552 -7.03779,-21.54184 -11.82933,-31.80725 -1.94163,-3.98473 -4.1479,-7.71618 -7.63687,-10.47975 0,0 -20.39409,2.1002 -20.39409,2.1002 v 0 c 4.28914,1.92453 5.88681,5.30426 8.16189,9.27798 4.96582,10.01938 9.3726,20.32665 11.90707,31.27114 0.71145,3.8642 1.30101,6.55003 1.64621,10.46587 0.60876,6.90638 -0.22014,13.77879 -1.74752,20.51702 -2.34184,8.57681 -5.51104,17.18866 -11.83887,23.65963 -5.30275,4.7188 -10.02418,7.51735 -17.2125,8.3851 -9.33307,1.27523 -4.29312,0.39257 12.26736,0.75136 1.17761,0.0254 -2.35632,0.0869 -3.53341,0.0429 -1.74684,-0.0652 -4.54133,-0.36552 -6.29118,-0.8369 -0.89219,-0.24031 -1.73891,-0.62646 -2.60835,-0.93968 -5.1429,-2.55311 -9.1911,-6.57226 -11.42273,-11.95024 -1.56742,-5.17012 -2.05447,-10.30584 -0.77868,-15.62623 2.69825,-11.94975 7.9641,-6.11815 -18.16897,-7.27587 -0.0705,-0.005 0.0793,0.11733 0.1191,0.17595 -0.22181,3.97715 -2.63049,7.62081 -3.93036,11.27675 -3.33626,7.46991 -7.6385,14.4459 -13.22709,20.45077 -5.29257,5.11938 -9.73095,8.40224 -17.35908,8.55834 5.63424,0.0279 11.26863,0.039 16.90275,0.0836 1.00866,0.008 -2.01848,0.0773 -3.02586,0.0259 -3.79556,-0.19292 -7.52475,-1.15309 -11.01963,-2.61803 -5.61816,-3.08497 -10.66673,-6.93132 -13.98663,-12.56147 -3.81128,-7.64521 -6.1124,-15.79193 -6.75791,-24.34811 -0.74652,-9.72696 -0.75628,-19.51494 0.986,-29.15078 0.79113,-3.71584 1.00266,-5.2565 2.23492,-8.85853 1.81713,-5.3117 4.67681,-10.18059 7.65782,-14.90191 3.80587,-5.29133 8.34454,-9.92701 13.95984,-13.30686 4.41571,-2.57659 9.00958,-4.82238 14.13768,-5.50502 0,0 -20.49255,-2.91158 -20.49255,-2.91158 z" />
    <path
       style="fill:#000000;stroke-width:0.264999;stroke-miterlimit:4;stroke-dasharray:none"
       id="path1005"
       d="m -267.34215,382.44581 c 3.65673,-3.40114 7.12085,-7.01959 10.77572,-10.42727 5.21005,-4.55529 9.33271,-10.16117 12.94236,-16.03452 2.66712,-5.27681 4.1583,-10.991 4.16715,-16.89788 0.063,-0.42233 -0.94869,-5.01127 -1.32916,-4.99943 -21.26211,0.66136 -19.53151,-5.219 -21.27636,3.08186 -0.92051,5.31549 -1.42029,10.71605 -1.90091,16.09104 -0.63921,9.84214 -0.98664,19.69957 -0.77061,29.56427 0.19125,6.05291 0.33564,11.48839 4.37864,16.26909 1.61326,1.2985 3.59311,2.5151 5.75218,2.54706 13.12308,0.19428 18.38874,1.9022 28.01688,-1.81424 6.43962,-2.85112 12.14712,-7.13779 17.92005,-11.13561 2.22648,-1.99991 6.09728,-4.05947 6.58151,-7.42037 0.29742,-2.06422 -0.54809,-3.33737 -1.32041,-5.11754 0,0 -20.40465,0.92991 -20.40465,0.92991 v 0 c 0.38529,0.69269 1.47495,2.22368 1.2737,3.23799 -0.51201,2.58066 -4.53581,4.80376 -6.27798,6.41466 -5.66507,3.98247 -11.3336,8.19657 -17.90262,10.55226 -0.94814,0.26828 -1.88076,0.5998 -2.84441,0.80479 -0.88126,0.18749 -3.57739,0.3361 -2.6772,0.36978 5.95626,0.22284 11.92002,0.13631 17.88009,0.19901 1.97834,0.0208 -6.78462,-0.13073 -5.54923,-1.18065 -4.54847,-3.79371 -4.35915,-9.19911 -4.86897,-14.72589 -0.46638,-9.77932 -0.0333,-19.56061 0.99579,-29.2951 0.56385,-5.25225 1.11804,-10.55749 2.33688,-15.69916 3.0139,-7.5029 0.50026,-0.26022 -19.95849,-0.64717 -0.29765,-0.006 0.053,-0.66412 0.28663,-0.84942 0.16284,-0.12923 0.56788,0.27968 0.86364,1.28021 0.15108,0.51128 0.21539,1.04448 0.32309,1.56673 0.14355,5.52697 -1.20594,10.87387 -3.84968,15.74455 -3.62113,5.77158 -7.85209,11.07563 -13.05112,15.50898 -3.64649,3.55097 -7.31675,7.06278 -11.11139,10.45424 0,0 20.59889,1.62782 20.59888,1.62782 z" />
    <path
       style="fill:#000000;stroke-width:0.264999;stroke-miterlimit:4;stroke-dasharray:none"
       id="path1007"
       d="m -248.06649,279.742 c -2.38402,2.80919 -6.86439,6.80112 -7.8826,10.36868 -0.92952,3.25666 -0.067,4.34623 0.93162,7.34981 0.75267,0.91206 1.34112,1.9909 2.25798,2.73621 0.89035,0.72377 1.91131,1.50338 3.05419,1.58208 21.46193,1.47782 16.61077,2.8985 26.73494,-1.06827 0,0 -20.02719,-2.56722 -20.02719,-2.56722 v 0 c -7.92893,1.82611 -8.1992,1.60154 13.38497,1.18022 1.01524,-0.0197 -2.05808,-0.23821 -2.96727,-0.69226 -0.87461,-0.43679 -1.48896,-1.26999 -2.23343,-1.90498 -0.3904,-0.89608 -1.00599,-1.72433 -1.17121,-2.68824 -0.82974,-4.84144 5.36298,-9.60083 8.43003,-12.51586 0,0 -20.51202,-1.78017 -20.51203,-1.78017 z" />
    <path
       style="fill:#000000;stroke-width:0.264999;stroke-miterlimit:4;stroke-dasharray:none"
       id="path1011"
       d="m -193.8775,375.38423 c 12.54261,1.63511 25.25287,1.02165 37.85182,0.99131 5.08812,-0.30201 10.02392,-1.61119 14.47482,-4.11901 1.04775,-0.59034 2.14663,-1.12741 3.06282,-1.9078 1.01445,-0.86409 1.78116,-1.98453 2.67174,-2.97681 4.16595,-6.03197 5.86805,-12.98114 4.75769,-20.20074 -1.95705,-5.92327 -6.08097,-7.91721 -11.84054,-9.00495 -15.58038,-0.34425 -25.47946,-2.3544 -38.22142,4.83361 -0.8459,0.55557 -1.76726,1.00975 -2.53769,1.66673 -4.89999,4.17863 -8.3143,10.28129 -10.8793,16.0798 -3.32535,7.77919 -3.93654,13.50398 -2.51751,21.78206 2.12977,8.15644 7.21971,12.18638 14.46748,15.77486 3.72845,1.39864 7.6818,2.64315 11.70774,2.71946 12.60275,0.23882 20.95931,1.00981 32.00594,-1.29356 6.91009,-2.1368 12.65721,-6.17913 17.33661,-11.62875 1.38123,-1.80887 1.93863,-3.59298 2.09295,-5.80112 0,0 -20.62256,-0.0976 -20.62256,-0.0976 v 0 c -0.019,1.74211 -0.6495,3.03219 -1.74508,4.42132 -4.59838,5.07339 -10.25222,8.71523 -16.96268,10.32193 -7.17885,1.21951 -21.89928,1.49357 7.73171,1.11443 1.35925,-0.0175 -2.72003,-0.10589 -4.06884,-0.27565 -1.30647,-0.16443 -2.60244,-0.41959 -3.88347,-0.72525 -1.22086,-0.29131 -2.4084,-0.70882 -3.61262,-1.06325 -6.89473,-2.85368 -12.02935,-6.3593 -14.2518,-13.83697 -1.55814,-7.90603 -0.73581,-13.13616 2.44214,-20.55137 3.01015,-6.52521 6.97911,-12.86415 13.44352,-16.39985 2.81661,-1.38402 5.56651,-2.57656 8.64807,-3.2606 6.92757,-1.53775 21.68049,-0.28846 -10.65997,-0.85633 4.83484,0.35729 9.48624,1.57046 11.54752,6.45282 1.41513,6.54495 -0.33178,12.98141 -4.43562,18.25489 -0.89416,0.81925 -1.70467,1.74136 -2.68248,2.45784 -4.95876,3.63366 -11.39264,4.65456 -17.34367,4.99715 33.22341,0.17639 10.22706,0.36468 2.47469,-0.8231 0,0 -20.45201,2.95453 -20.45201,2.95453 z" />
    <path
       style="fill:#000000;stroke-width:0.264999;stroke-miterlimit:4;stroke-dasharray:none"
       id="path1054"
       d="m -114.89006,288.44641 c 1.23706,7.45527 1.22125,15.02476 1.08382,22.5563 -0.30103,10.53889 -0.61518,21.07717 -0.75516,31.61972 0.005,9.59175 -0.3243,19.18793 0.003,28.77593 0.60405,7.92941 1.55403,16.00736 5.271,23.12996 1.16888,1.65058 1.6644,2.60755 3.25674,3.87206 0.85058,0.67547 2.85755,1.8517 4.04118,1.88385 21.542295,0.58486 15.566925,2.2485 24.751335,-0.68884 3.579225,-1.59475 7.37319,-3.51557 9.949095,-6.58937 0.6225,-0.74286 1.110735,-1.5894 1.666095,-2.38407 4.06014,-5.89376 4.86855,-12.0468 5.233215,-19.02545 0,0 -20.132955,-0.10257 -20.132955,-0.10257 v 0 c -0.312675,6.40507 -1.47921,12.5442 -5.393295,17.79366 -3.064365,3.64889 -6.95334,6.31232 -11.584455,7.57204 -7.969705,1.24844 -3.464275,0.41971 15.794745,0.58544 0.669975,0.006 -1.349595,0.0172 -2.00682,-0.11371 -2.34861,-0.46713 -3.903285,-2.00333 -5.27718,-3.87173 -4.173225,-6.55178 -5.050845,-14.52563 -5.5836,-22.13561 -0.37995,-9.55226 -0.1407,-19.11891 -0.1188,-28.67645 0.1245,-10.53352 0.29004,-21.06685 0.726225,-31.59299 0.25686,-7.64138 0.37236,-15.27374 -0.26295,-22.90261 0,0 -20.660505,0.29443 -20.660505,0.29443 z" />
    <path
       d="m 275.63544,288.44641 c 1.23706,7.45527 1.22125,15.02476 1.08382,22.5563 -0.30104,10.53889 -0.61518,21.07717 -0.75516,31.61972 0.005,9.59175 -0.3243,19.18793 0.003,28.77593 0.60405,7.92941 1.55403,16.00736 5.27099,23.12996 1.16888,1.65058 1.6644,2.60755 3.25674,3.87206 0.85057,0.67547 2.85754,1.8517 4.04118,1.88385 21.54228,0.58486 15.56691,2.2485 24.75132,-0.68884 3.57922,-1.59475 7.37318,-3.51557 9.94909,-6.58937 0.62249,-0.74286 1.11073,-1.5894 1.66609,-2.38407 4.06014,-5.89376 4.86855,-12.0468 5.23321,-19.02545 0,0 -20.13294,-0.10257 -20.13294,-0.10257 v 0 c -0.31268,6.40507 -1.47921,12.5442 -5.39329,17.79366 -3.06437,3.64889 -6.95334,6.31232 -11.58445,7.57204 -7.96971,1.24844 -3.46428,0.41971 15.79473,0.58544 0.66998,0.006 -1.34959,0.0172 -2.00681,-0.11371 -2.34861,-0.46713 -3.90329,-2.00333 -5.27718,-3.87173 -4.17323,-6.55178 -5.05084,-14.52563 -5.5836,-22.13561 -0.37995,-9.55226 -0.1407,-19.11891 -0.1188,-28.67645 0.1245,-10.53352 0.29004,-21.06685 0.72622,-31.59299 0.25686,-7.64138 0.37236,-15.27374 -0.26295,-22.90261 0,0 -20.66048,0.29443 -20.66048,0.29443 z"
       id="path1056"
       style="fill:#000000;stroke-width:0.264999;stroke-miterlimit:4;stroke-dasharray:none" />
    <path
       style="fill:#000000;stroke-width:0.264999;stroke-miterlimit:4;stroke-dasharray:none"
       id="path1074"
       d="m 278.3106,326.25076 c 10.62865,-1.73315 21.33461,-2.94277 32.05242,-3.9708 1.92095,-0.16092 3.8419,-0.32183 5.76285,-0.48273 0,0 -19.51058,-2.92558 -19.51058,-2.92558 v 0 c -1.86499,0.17607 -3.72997,0.35214 -5.59496,0.52821 -11.04498,1.13618 -22.06643,2.47116 -33.08471,3.84221 0,0 20.37498,3.00869 20.37498,3.00869 z" />
    <path
       style="fill:#000000;fill-opacity:1;stroke-width:0.264999;stroke-miterlimit:4;stroke-dasharray:none"
       id="path1096"
       d="m 240.28463,338.72993 c -9.39363,-2.96947 -19.09752,-1.67489 -29.00904,-1.41118 -0.9758,0.0259 -1.92287,0.37866 -2.84214,0.70824 -1.05986,0.37999 -2.04645,0.94088 -3.06963,1.41132 -8.43325,4.36212 -13.01017,12.58519 -16.82116,20.92577 -1.96663,5.26678 -3.52386,10.68454 -4.27045,16.26989 -0.22631,1.69274 -0.52158,3.39843 -0.44208,5.10447 0.1965,4.21738 1.20157,5.886 2.69736,9.66736 0.83579,1.22735 1.5009,2.59149 2.50741,3.68206 2.53905,2.75117 7.75581,5.39987 11.54517,5.51503 23.02328,0.69972 17.19844,1.85036 29.18402,-1.41727 1.51534,-0.62566 3.09811,-1.10692 4.54595,-1.87696 6.10502,-3.24695 12.40565,-9.85774 14.98493,-16.33569 0.76351,-1.91759 1.03776,-3.99672 1.55667,-5.99509 1.25578,-7.94516 0.17593,-16.29443 -4.7571,-22.90905 -1.113,-1.4924 -2.32923,-2.99705 -3.89585,-3.99791 -1.65255,-1.05576 -3.68094,-1.3457 -5.52145,-2.01855 0,0 -19.57081,2.5605 -19.57081,2.5605 v 0 c 1.78841,0.35576 3.72515,0.26765 5.3652,1.06727 1.56217,0.76166 2.78974,2.12433 3.91135,3.45562 5.01837,5.95646 5.96416,13.8883 4.7962,21.31055 -0.53194,1.82841 -0.84133,3.7375 -1.59575,5.48521 -3.54926,8.22225 -11.2501,13.98626 -19.54236,16.58411 -8.08728,1.60885 -11.29079,1.88463 10.39388,1.33849 1.37695,-0.0346 -2.73669,-0.35734 -4.07682,-0.67698 -4.26771,-1.0179 -7.51887,-2.75439 -9.89703,-6.575 -1.56492,-3.45842 -2.52678,-4.76727 -2.76059,-8.70441 -0.0974,-1.63951 0.15081,-3.28485 0.35619,-4.91428 0.68486,-5.43339 2.24021,-10.6924 4.30923,-15.74772 3.82632,-8.04831 8.56739,-15.72448 17.07313,-19.37288 1.03616,-0.34059 2.04656,-0.77372 3.10848,-1.02174 0.9294,-0.21707 3.79278,-0.3345 2.83912,-0.36737 -33.22045,-1.14512 -18.51095,-1.05281 -11.62917,0.84415 0,0 20.52714,-2.58796 20.52714,-2.58796 z" />
    <path
       style="fill:#000000;fill-opacity:1;stroke-width:0.264999;stroke-miterlimit:4;stroke-dasharray:none"
       id="path1098"
       d="m 243.77422,345.69699 c -6.1593,5.91078 -9.57171,14.16981 -12.02988,22.19408 -1.46086,7.36159 -0.6198,15.07011 5.31264,20.24939 0.89127,0.7781 1.93509,1.3602 2.90259,2.04031 2.25822,1.42627 4.7712,2.11333 7.31818,2.76721 0.37616,0.0966 0.75108,0.38591 1.12784,0.29184 0.396,-0.0988 -0.0516,-0.63503 -0.63846,-1.52566 -5.9118,3.33472 -10.5177,8.29559 -14.66976,13.58215 -2.31089,5.18552 -4.23763,9.40418 -2.59386,15.16857 0.45616,1.59969 1.10764,3.18623 2.07859,4.53467 2.81408,3.90821 5.12838,4.41631 9.30518,6.53705 6.25771,2.49015 12.80889,2.84965 19.43131,3.07037 0,0 19.3496,-3.04966 19.3496,-3.04966 v 0 c -6.51645,0.0346 -12.95405,-0.0944 -19.2053,-2.26735 -3.66379,-1.53279 -6.32139,-2.08089 -8.96628,-5.21134 -4.70134,-5.56447 -2.52376,-11.77746 0.47811,-17.41028 4.48295,-5.28566 9.26973,-9.69328 15.42189,-12.95192 0.27933,-0.67722 1.41669,-2.31859 0.47399,-3.22709 -0.78443,-0.75599 -8.5529,-0.9009 -8.81678,-2.35244 -0.96769,-0.54158 -1.99656,-0.98526 -2.90305,-1.62471 -6.22931,-4.39414 -6.84542,-11.00179 -5.56467,-18.02371 0.49296,-1.59369 0.88384,-3.22293 1.47895,-4.78106 2.34443,-6.13808 6.07502,-12.12406 11.31177,-16.15174 0,0 -20.6026,-1.85868 -20.6026,-1.85868 z" />
    <path
       style="fill:#000000;fill-opacity:1;stroke-width:0.264999;stroke-miterlimit:4;stroke-dasharray:none"
       id="path1128"
       d="m 123.42431,335.12112 c -3.16065,5.50869 -6.07905,11.14667 -9.09549,16.73619 -3.76095,6.21864 -6.58347,12.9066 -9.25699,19.64724 -1.85021,4.97189 -4.34775,9.62745 -6.754711,14.33438 -5.565074,8.38391 -0.983954,4.11423 19.630651,2.98608 0.5251,-0.0288 0.52266,-0.91677 0.80074,-1.36496 0.32052,-0.51658 0.66305,-1.01906 0.99456,-1.52862 2.39601,-3.72311 4.6512,-5.41803 8.81721,-6.72228 6.83051,-1.21559 19.68101,-1.35355 -15.00151,-0.23244 -0.54644,0.0176 1.08498,0.18374 1.59654,0.37745 1.4362,0.54382 2.04336,1.20756 3.25791,2.17998 3.7774,3.82644 6.40752,8.54211 10.03941,12.51107 3.73696,3.86283 8.38516,6.21863 13.64407,7.04894 22.17854,-0.0559 19.49162,3.94263 30.15102,-6.44261 2.72277,-2.67309 6.01212,-4.53392 8.5575,-7.40353 0,0 -20.4448,-1.58237 -20.4448,-1.58237 v 0 c -2.7263,2.58382 -5.94659,4.58535 -8.53769,7.32644 -1.40683,1.33293 -2.80494,2.84671 -4.48449,3.84562 -5.60133,3.33139 -23.05057,0.0785 15.0117,1.24509 -5.43231,-0.24658 -9.5761,-1.83125 -13.62631,-5.59259 -3.82385,-3.85884 -6.43497,-8.54412 -9.94529,-12.65114 -8.17891,-8.59555 -19.41931,-6.43721 -30.56323,-3.11309 -3.99162,1.77514 -6.62643,4.29055 -8.960641,7.99619 -0.351285,0.5208 -0.700035,1.04335 -1.053854,1.56244 -0.295335,0.43327 -1.409101,1.20656 -0.893611,1.29457 21.608176,3.68901 16.933316,7.4368 21.518146,-0.77952 2.3301,-4.7482 4.45764,-9.57702 6.35163,-14.52019 2.70999,-6.65085 5.65108,-13.19267 9.23377,-19.42516 2.99754,-5.62318 6.04785,-11.2457 9.63581,-16.51421 0,0 -20.62205,-1.21897 -20.62205,-1.21897 z" />
    <path
       style="fill:#000000;fill-opacity:1;stroke-width:0.264999;stroke-miterlimit:4;stroke-dasharray:none"
       id="path1134"
       d="m 97.119474,278.79819 c -1.246545,7.51389 -1.791615,15.13266 -2.342205,22.72517 -0.837645,12.01063 -0.774225,24.05542 -0.965835,36.08658 -0.009,12.24486 0.0711,24.4995 0.84642,36.72301 0.68103,7.03802 0.90273,14.1145 1.76601,21.1332 -0.0942,0.41796 1.05216,4.58543 0.17499,4.55746 0,0 20.768386,0.95864 20.768386,0.95864 v 0 c 0.41199,-1.99177 -0.26352,-3.82308 -0.55484,-5.80818 -1.13743,-6.95547 -1.40704,-14.00124 -2.26699,-20.99484 -1.09818,-12.14835 -1.39529,-24.3592 -1.08092,-36.55266 0.0105,-11.98718 0.25706,-23.98338 1.13153,-35.94172 0.66564,-7.43442 1.2702,-14.99195 3.20107,-22.21839 0,0 -20.677616,-0.66827 -20.677616,-0.66827 z" />
    <path
       d="m 339.52271,375.38423 c 12.54259,1.63511 25.25278,1.02165 37.85169,0.99131 5.08812,-0.30201 10.02391,-1.61119 14.47482,-4.11901 1.04775,-0.59034 2.14662,-1.12741 3.06282,-1.9078 1.01445,-0.86409 1.78116,-1.98453 2.67174,-2.97681 4.16595,-6.03197 5.86804,-12.98114 4.75768,-20.20074 -1.95705,-5.92327 -6.08097,-7.91721 -11.84053,-9.00495 -15.58038,-0.34425 -25.47943,-2.3544 -38.22132,4.83361 -0.84589,0.55557 -1.76724,1.00975 -2.53766,1.66673 -4.89999,4.17863 -8.3143,10.28129 -10.8793,16.0798 -3.32535,7.77919 -3.93654,13.50398 -2.51751,21.78206 2.12978,8.15644 7.21971,12.18638 14.46747,15.77486 3.72842,1.39864 7.68176,2.64315 11.70767,2.71946 12.60269,0.23882 20.95925,1.00981 32.00588,-1.29356 6.9101,-2.1368 12.65721,-6.17913 17.33661,-11.62875 1.38123,-1.80887 1.93863,-3.59298 2.09295,-5.80112 0,0 -20.62255,-0.0976 -20.62255,-0.0976 v 0 c -0.019,1.74211 -0.6495,3.03219 -1.74509,4.42132 -4.59838,5.07339 -10.25221,8.71523 -16.96267,10.32193 -7.17883,1.21951 -21.89917,1.49357 7.7317,1.11443 1.35926,-0.0175 -2.72002,-0.10589 -4.06884,-0.27565 -1.30647,-0.16443 -2.60244,-0.41959 -3.88347,-0.72525 -1.22086,-0.29131 -2.4084,-0.70882 -3.61261,-1.06325 -6.89469,-2.85368 -12.02928,-6.3593 -14.25171,-13.83697 -1.55814,-7.90603 -0.73581,-13.13616 2.44212,-20.55137 3.01013,-6.52521 6.97907,-12.86415 13.44345,-16.39985 2.81661,-1.38402 5.5665,-2.57656 8.64807,-3.2606 6.92757,-1.53775 21.68049,-0.28846 -10.65997,-0.85633 4.83484,0.35729 9.48623,1.57046 11.54752,6.45282 1.41513,6.54495 -0.33179,12.98141 -4.43562,18.25489 -0.89417,0.81925 -1.70468,1.74136 -2.68248,2.45784 -4.95875,3.63366 -11.39261,4.65456 -17.34359,4.99715 33.22332,0.17639 10.227,0.36468 2.47467,-0.8231 0,0 -20.45194,2.95453 -20.45194,2.95453 z"
       id="path1138"
       style="fill:#000000;stroke-width:0.264999;stroke-miterlimit:4;stroke-dasharray:none" />
    <path
       d="m 450.44924,335.12112 c -3.16065,5.50869 -6.07905,11.14667 -9.09549,16.73619 -3.76095,6.21864 -6.58347,12.9066 -9.257,19.64724 -1.8502,4.97189 -4.34775,9.62745 -6.75472,14.33438 -5.56508,8.38391 -0.98396,4.11423 19.63066,2.98608 0.52511,-0.0288 0.52266,-0.91677 0.80075,-1.36496 0.32052,-0.51658 0.66304,-1.01906 0.99456,-1.52862 2.39601,-3.72311 4.65121,-5.41803 8.81721,-6.72228 6.83052,-1.21559 19.68102,-1.35355 -15.00152,-0.23244 -0.54643,0.0176 1.08498,0.18374 1.59654,0.37745 1.43621,0.54382 2.04336,1.20756 3.25791,2.17998 3.77741,3.82644 6.40754,8.54211 10.03941,12.51107 3.73698,3.86283 8.38518,6.21863 13.64409,7.04894 22.17855,-0.0559 19.49163,3.94263 30.15104,-6.44261 2.72277,-2.67309 6.01212,-4.53392 8.55751,-7.40353 0,0 -20.44482,-1.58237 -20.44482,-1.58237 v 0 c -2.72629,2.58382 -5.9466,4.58535 -8.5377,7.32644 -1.40683,1.33293 -2.80494,2.84671 -4.48449,3.84562 -5.60133,3.33139 -23.05057,0.0785 15.01172,1.24509 -5.43231,-0.24658 -9.57612,-1.83125 -13.62633,-5.59259 -3.82385,-3.85884 -6.43497,-8.54412 -9.94529,-12.65114 -8.17893,-8.59555 -19.41933,-6.43721 -30.56325,-3.11309 -3.99162,1.77514 -6.62643,4.29055 -8.96065,7.99619 -0.35129,0.5208 -0.70004,1.04335 -1.05386,1.56244 -0.29533,0.43327 -1.4091,1.20656 -0.89361,1.29457 21.60819,3.68901 16.93334,7.4368 21.51816,-0.77952 2.3301,-4.7482 4.45764,-9.57702 6.35165,-14.52019 2.70997,-6.65085 5.65107,-13.19267 9.23377,-19.42516 2.99754,-5.62318 6.04785,-11.2457 9.63581,-16.51421 0,0 -20.62206,-1.21897 -20.62206,-1.21897 z"
       id="path1140"
       style="fill:#000000;fill-opacity:1;stroke-width:0.264999;stroke-miterlimit:4;stroke-dasharray:none" />
    <path
       d="m 424.14438,278.79819 c -1.24654,7.51389 -1.79161,15.13266 -2.3422,22.72517 -0.83764,12.01063 -0.77423,24.05542 -0.96584,36.08658 -0.009,12.24486 0.0711,24.4995 0.84643,36.72301 0.68102,7.03802 0.90272,14.1145 1.766,21.1332 -0.0942,0.41796 1.05216,4.58543 0.17499,4.55746 0,0 20.7684,0.95864 20.7684,0.95864 v 0 c 0.41199,-1.99177 -0.26352,-3.82308 -0.55483,-5.80818 -1.13744,-6.95547 -1.40705,-14.00124 -2.26699,-20.99484 -1.09819,-12.14835 -1.39529,-24.3592 -1.08092,-36.55266 0.0105,-11.98718 0.25705,-23.98338 1.13152,-35.94172 0.66564,-7.43442 1.2702,-14.99195 3.20108,-22.21839 0,0 -20.67764,-0.66827 -20.67764,-0.66827 z"
       id="path1142"
       style="fill:#000000;fill-opacity:1;stroke-width:0.264999;stroke-miterlimit:4;stroke-dasharray:none" />
    <path
       id="path1188"
       style="fill:#eb0000;fill-opacity:1;stroke:#eb0000;stroke-width:11.3386;stroke-miterlimit:4;stroke-dasharray:none;stroke-opacity:1"
       transform="scale(0.26458333)"
       d="m 211.74414,1186.5977 c -6.14272,0.034 -15.49997,0.2165 -33.42578,0.2421 -20.08998,0.03 -40.163,3.7945 -59.35156,9.5391 -12.87117,4.7452 -17.61329,6.0882 -29.992191,12.3106 -18.000092,9.048 -34.632727,20.7064 -49.603515,34.2128 -5.999017,6.5145 -10.060711,10.4862 -15.16211,17.8204 -7.874305,11.3207 -13.536476,24.3917 -16.9882809,37.7168 -1.1675905,13.2523 -0.09057,22.376 7.0703129,33.7636 l 9.714843,-0.7715 c 0.08431,-0.3426 0.17179,-0.643 0.183594,-1.0019 0.006,-0.1841 -0.02359,-0.3686 -0.02539,-0.5527 -0.0059,-0.6068 0.07907,-1.2013 0.177735,-1.7989 0.03022,-0.3683 0.08307,-0.7361 0.0918,-1.1054 0.03978,-1.6826 -0.124284,-3.37 -0.169922,-5.0508 -0.01387,-0.511 -0.03487,-1.0226 -0.01367,-1.5332 0.0089,-0.2145 0.0428,-0.4274 0.07031,-0.6407 -0.189953,-0.3076 -0.171617,-0.7902 0.230469,-1.332 0.03446,-0.1608 0.06876,-0.3215 0.103516,-0.4824 0.09335,-0.3107 0.207432,-0.6176 0.28125,-0.9336 0.14361,-0.6145 0.386292,-2.2322 0.535156,-2.8184 0.471286,-1.8557 0.621328,-2.015 1.378906,-3.7851 0.322966,-0.5133 0.622629,-1.0411 0.96875,-1.5391 0.829931,-1.1942 2.744433,-3.5857 3.523438,-4.5859 0.899886,-1.1554 2.106853,-2.7819 3.123047,-3.9297 0.248563,-0.2808 0.529758,-0.5296 0.794922,-0.7949 0.309363,-0.3094 0.62071,-0.4645 0.892578,-0.502 0.815603,-0.1125 1.285499,0.8239 0.357422,1.752 -0.265166,0.2651 -0.546562,0.5141 -0.794922,0.7949 -0.838385,0.9483 -2.316234,2.9162 -2.97461,3.7617 -0.765367,0.9829 -2.679402,3.3737 -3.503906,4.5606 -0.318568,0.4587 -0.59292,0.9482 -0.888672,1.4218 -0.637626,1.5409 -0.778309,1.7195 -1.183594,3.3516 -0.04297,0.173 -0.06584,0.3504 -0.09961,0.5254 l 9.365235,-11.8789 c 0.304672,-0.3865 0.634565,-0.5768 0.925781,-0.6211 0.09707,-0.015 0.18899,-0.014 0.27539,0 0.576007,0.1057 0.862628,0.8539 0.185547,1.7129 l -11.623047,14.7461 c -0.02937,0.1399 -0.05825,0.2799 -0.08789,0.4199 -0.03236,0.3257 -0.08726,0.6511 -0.09766,0.9785 -0.0202,0.6365 0.07687,2.5691 0.09766,3.0781 0.0286,0.701 0.112558,2.5723 0.0957,3.293 -0.0099,0.4258 -0.06377,0.8487 -0.0957,1.2734 -0.07671,0.5621 -0.188455,1.1185 -0.173828,1.6875 0.0038,0.1482 0.02877,0.2953 0.02344,0.4434 -0.01583,0.4388 -0.05301,0.6807 -0.107422,0.9395 l 24.855469,-1.9707 c 0.218257,-0.1432 0.437792,-0.2852 0.646484,-0.4415 0.308577,-0.231 0.599273,-0.4834 0.888672,-0.7382 -7.140218,-8.6992 -8.026335,-18.2871 -7.126953,-29.3711 2.918041,-12.8402 8.54542,-25.2472 16.179688,-35.9688 5.353511,-7.5184 8.625292,-10.4503 14.970703,-17.0683 18.587338,-16.9511 40.101571,-30.4661 63.468751,-39.6504 4.93687,-1.9404 10.01414,-3.4948 15.02148,-5.2422 12.86318,-3.8915 26.1346,-6.2229 39.49805,-7.4531 2.17055,0.2387 5.34734,0.5568 9.85352,1.0527 19.8356,2.8261 36.86315,11.3491 49.33593,27.5293 2.22968,2.8923 3.96367,6.1424 5.94532,9.2129 1.3786,3.5245 3.08682,6.9344 4.13671,10.5722 5.1751,17.9318 3.61984,37.8298 -0.0976,55.8692 -1.05483,5.1174 -2.57972,10.1251 -3.86914,15.1875 -10.2964,33.8242 -28.37405,64.301 -45.8086,94.7383 -19.05193,34.2973 -39.46209,67.8066 -58.4414,102.1406 -19.47192,36.132 -38.54976,72.4793 -57.589846,108.8437 -18.169569,33.851 -37.593062,66.9974 -55.419922,101.0352 -14.759663,26.5316 -26.583438,54.5055 -37.7597658,82.7109 -4.63906521,12.4132 -9.9959311,24.5857 -13.2578124,37.4649 -0.654293,3.2124 -1.6175958,4.3718 -4.4765628,5.4336 l 38.695313,3.7109 c 2.281663,-2.4369 3.782045,-4.7831 4.257812,-8.2207 2.883062,-12.6462 7.663649,-24.7511 11.738282,-37.0351 10.130269,-28.2996 21.992528,-55.9363 36.427734,-82.3028 18.077272,-33.8 36.331488,-67.4974 54.832028,-101.0644 19.36007,-36.2107 37.77652,-72.9326 57.85352,-108.752 19.22615,-34.1913 38.99411,-68.0743 58.54687,-102.0762 17.95941,-30.5976 35.80219,-61.6108 46.48438,-95.705 1.34447,-5.1802 2.94158,-10.3008 4.0332,-15.5411 3.85024,-18.483 5.59112,-39.3041 0.77149,-57.7832 -1.01475,-3.8906 -2.71974,-7.5636 -4.08008,-11.3457 -2.02615,-3.2682 -3.79748,-6.7114 -6.07813,-9.8046 -7.09188,-9.6187 -16.92675,-18.2319 -27.57226,-23.6446 -8.0191,-4.0771 -13.54268,-4.663 -22.25196,-6.541 -17.16753,-2.1715 -18.47697,-2.5253 -28.71484,-2.4687 z" />
    <path
       id="path1196"
       style="fill:#eb0000;fill-opacity:1;stroke:#eb0000;stroke-width:11.3386;stroke-miterlimit:4;stroke-dasharray:none;stroke-opacity:1"
       transform="scale(0.26458333)"
       d="m -97.542969,1202.3164 v 0 c -10.300701,-0.09 -20.623161,0.3809 -31.029301,0.5468 -3.10648,0.051 -6.4743,0.9668 -9.57421,1.3243 -9.04926,1.7691 -18.04049,3.7852 -27.03516,5.8203 -9.61796,2.2284 -18.45616,6.4854 -26.4375,12.2578 -9.07784,7.2087 -14.96591,16.7999 -19.58984,27.2949 -5.53964,12.241 -7.33165,25.3858 -6.84766,38.707 0.44787,9.8931 3.21579,19.8546 7.7832,28.6524 2.79275,5.3797 7.01041,11.2291 10.41406,16.209 12.45777,16.1689 27.45667,30.1006 42.58399,43.6718 16.5312,15.0635 32.47736,30.7759 47.97266,46.9161 15.782976,17.6145 30.683383,36.0314 44.826168,55.0039 13.03506,18.2346 25.46903,36.9062 37.535156,55.8046 8.092403,13.0249 15.526555,26.44 23.488281,39.545 2.2579652,5.0638 6.8131833,9.7931 7.2285156,15.5547 l 39.1093754,-0.6036 c -1.316977,-6.3242 -4.871536,-11.6767 -8.144532,-17.1347 -8.485965,-12.9649 -16.40292,-26.2701 -24.419922,-39.5371 -12.3802554,-18.8789 -24.989823,-37.6099 -38.082031,-55.9961 -13.958309,-19.2389 -29.037477,-37.5962 -44.648437,-55.4961 -15.453525,-16.182 -31.424614,-31.875 -47.681644,-47.2324 -14.99317,-13.3599 -30.05029,-26.8637 -42.44726,-42.7872 -9.14803,-13.1134 -16.96345,-26.2141 -17.58594,-42.7011 -0.39402,-12.779 1.50714,-25.2739 7.00391,-36.9278 4.64956,-9.8934 10.62004,-18.8309 19.6875,-25.1679 8.07625,-5.134 16.78251,-8.9353 26.18945,-10.8418 7.49855,-1.7122 15.02696,-3.3369 22.61133,-4.6192 5.686641,1.0666 11.270235,2.6199 16.591794,5.0196 11.299238,4.0992 21.935585,10.0294 32.302735,16.0957 10.180573,6.624 20.406696,13.2297 30.029297,20.6582 9.053915,6.9407 17.8327455,14.4512 24.5781246,23.7617 6.2721061,8.8488 11.7550464,18.1723 13.4824214,29.0976 1.74858,8.4677 2.673914,17.0283 3.230469,25.6563 l 10.011719,-0.166 c 0.0018,-0.026 0.0089,-0.05 0.0098,-0.078 0.006,-0.1841 -0.02358,-0.3689 -0.02539,-0.5528 -0.0059,-0.6068 0.07907,-1.2011 0.177734,-1.7988 0.03024,-0.3681 0.08307,-0.7362 0.0918,-1.1055 0.03978,-1.6826 -0.124288,-3.37 -0.169922,-5.0508 -0.01387,-0.511 -0.03487,-1.0226 -0.01367,-1.5332 0.0089,-0.2147 0.0428,-0.4274 0.07031,-0.6406 -0.189967,-0.3077 -0.171616,-0.7902 0.230469,-1.332 0.03447,-0.1606 0.06876,-0.3216 0.103515,-0.4824 0.09335,-0.3107 0.207432,-0.6176 0.28125,-0.9336 0.143611,-0.6145 0.386292,-2.2322 0.535157,-2.8184 0.471286,-1.8558 0.621328,-2.0151 1.378906,-3.7851 0.322964,-0.5134 0.622629,-1.0411 0.96875,-1.5391 0.829931,-1.1942 2.744432,-3.5858 3.523437,-4.5859 0.899886,-1.1555 2.106853,-2.7818 3.123047,-3.9297 0.248565,-0.2808 0.529758,-0.5297 0.794922,-0.795 0.309362,-0.3095 0.62071,-0.4644 0.892578,-0.5019 0.815603,-0.1126 1.285499,0.8238 0.357422,1.7519 -0.265164,0.2649 -0.546562,0.5142 -0.794922,0.795 -0.838385,0.9484 -2.316233,2.9163 -2.974609,3.7617 -0.765367,0.9829 -2.679402,3.3736 -3.503906,4.5605 -0.318569,0.4587 -0.59292,0.9482 -0.888672,1.4219 -0.637626,1.5409 -0.778309,1.7195 -1.183594,3.3516 -0.04297,0.1731 -0.06584,0.3503 -0.09961,0.5254 l 9.365234,-11.879 c 0.304668,-0.3864 0.634565,-0.5766 0.925781,-0.621 0.09706,-0.015 0.188991,-0.015 0.275391,0 0.576007,0.1058 0.862638,0.8538 0.185547,1.7128 l -11.623047,14.7461 c -0.02937,0.1398 -0.05825,0.2802 -0.08789,0.42 -0.03235,0.3258 -0.08725,0.6511 -0.09766,0.9785 -0.02018,0.6365 0.07687,2.569 0.09766,3.0781 0.02861,0.7009 0.112525,2.5723 0.0957,3.293 -0.0099,0.4258 -0.06377,0.8487 -0.0957,1.2734 -0.07671,0.5622 -0.188455,1.1184 -0.173828,1.6875 0.0038,0.1481 0.02877,0.2953 0.02344,0.4434 -0.0022,0.061 -0.009,0.078 -0.01172,0.1308 l 27.175781,-0.4531 c -1.356038,-8.5951 -2.082476,-17.2486 -3.800781,-25.791 -1.848019,-11.3458 -7.487139,-21.273 -13.785156,-30.6504 -6.619238,-9.7988 -15.562178,-17.581 -24.689454,-24.916 -9.5627885,-7.6924 -19.9262416,-14.2765 -30.177734,-20.9785 -10.296851,-6.4354 -21.037768,-12.1981 -32.222656,-16.8946 -9.169625,-4.1724 -18.943062,-6.4049 -28.869141,-7.7168 -6.179047,-0.6453 -12.350826,-0.903 -18.53125,-0.957 z" />
    <path
       style="fill:#000000;fill-opacity:1;stroke:#000000;stroke-width:3;stroke-miterlimit:4;stroke-dasharray:none;stroke-opacity:1"
       id="path1208"
       d="m -389.91672,400.11614 c 0.30173,0 0.60346,0 0.90519,0 0.30107,0 0.60217,0 0.90324,0 0.14904,0 0.29808,0 0.44712,0 1.40316,0 1.40316,-1.98437 0,-1.98437 v 0 c -0.14904,0 -0.29808,0 -0.44712,0 -0.30107,0 -0.60217,0 -0.90324,0 -0.30173,0 -0.60346,0 -0.90519,0 -1.40316,0 -1.40316,1.98437 0,1.98437 z" />
    <circle
       id="path1210"
       style="fill:#000000;stroke:#000000;stroke-width:0.264583"
       cx="-331.65521"
       cy="395.15521"
       r="0.19823906" />
    <circle
       id="path1212"
       style="fill:#000000;stroke:#000000;stroke-width:0.264583"
       cx="-327.15729"
       cy="395.28751"
       r="0.19823906" />
    <circle
       id="path1214"
       style="fill:#000000;stroke:#000000;stroke-width:0.264583"
       cx="-327.15729"
       cy="395.28751"
       r="0.19823906" />
    <path
       style="fill:#000000;fill-opacity:1;stroke:#000000;stroke-width:3;stroke-miterlimit:4;stroke-dasharray:none;stroke-opacity:1"
       id="path1216"
       d="m -326.47104,393.93775 c -0.72006,-0.28199 -1.45473,-0.5094 -2.20697,-0.68749 -1.36599,-0.32086 -1.81975,1.61094 -0.45376,1.9318 v 0 c 0.65646,0.15272 1.29575,0.35287 1.92374,0.59814 1.3028,0.52113 2.0398,-1.32133 0.73699,-1.84245 z" />
    <circle
       id="path1224"
       style="fill:#000000;stroke:#000000;stroke-width:0.264583"
       cx="-331.65521"
       cy="394.89062"
       r="0.092511557" />
    <circle
       id="path1226"
       style="fill:#000000;stroke:#000000;stroke-width:0.264583"
       cx="-330.33228"
       cy="395.15521"
       r="0.092511557" />
    <circle
       id="path1230"
       style="fill:#000000;stroke:#000000;stroke-width:0.264583"
       cx="-328.21561"
       cy="395.55209"
       r="0.092511557" />
    <path
       style="fill:#000000;fill-opacity:1;stroke:#000000;stroke-width:3;stroke-miterlimit:4;stroke-dasharray:none;stroke-opacity:1"
       id="path1232"
       d="m -331.73431,394.95677 c -0.0966,0 -0.19318,0 -0.28975,0 -0.65482,0 -0.65482,0.92604 0,0.92604 v 0 c 0.0966,0 0.19315,0 0.28975,0 0.65479,0 0.65479,-0.92604 0,-0.92604 z" />
    <path
       style="fill:#000000;fill-opacity:1;stroke:#000000;stroke-width:3;stroke-miterlimit:4;stroke-dasharray:none;stroke-opacity:1"
       id="path1234"
       d="m -330.1883,394.68536 c -0.37484,-0.0818 -0.75644,1.3e-4 -1.11988,0.0977 -0.18042,0.0422 -0.5339,0.16108 -0.7103,0.0598 -0.0209,-0.0127 -0.0419,-0.0254 -0.0628,-0.0381 -0.59243,-0.27893 -0.9869,0.55888 -0.39447,0.83783 v 0 c 0.0741,0.032 0.14825,0.0641 0.22236,0.0961 0.41129,0.087 0.79052,0.0686 1.19292,-0.0633 0.22085,-0.0647 0.4613,-0.1275 0.69054,-0.0819 0.64209,0.12843 0.8237,-0.77965 0.18161,-0.90805 z" />
    <circle
       id="path1236"
       style="fill:#000000;stroke:#000000;stroke-width:0.264583"
       cx="-260.61459"
       cy="336.68228"
       r="0.092511557" />
    <circle
       id="path1238"
       style="fill:#000000;stroke:#000000;stroke-width:0.264583"
       cx="-260.35001"
       cy="337.21146"
       r="0.092511557" />
    <circle
       id="path1244"
       style="fill:#000000;stroke:#000000;stroke-width:0.264583"
       cx="-255.32291"
       cy="338.79895"
       r="0.092511557" />
    <path
       style="fill:#000000;fill-opacity:1;stroke:#000000;stroke-width:3;stroke-miterlimit:4;stroke-dasharray:none;stroke-opacity:1"
       id="path1246"
       d="m -256.36956,337.93223 c -0.65529,-0.0743 -1.31521,-0.0882 -1.9723,-0.14644 -0.36972,-0.0473 -0.73649,-0.10483 -1.09375,-0.21143 -0.62784,-0.18603 -0.89089,0.70188 -0.26305,0.88789 v 0 c 0.4168,0.12274 0.84373,0.1942 1.27509,0.24598 0.62371,0.0552 1.24905,0.0761 1.87239,0.13205 0.6421,0.12843 0.82371,-0.77965 0.18162,-0.90805 z" />
    <circle
       id="path1248"
       style="fill:#000000;stroke:#000000;stroke-width:0.264583"
       cx="-258.10104"
       cy="337.60834"
       r="0.092511557" />
    <path
       style="fill:#000000;fill-opacity:1;stroke:#000000;stroke-width:3;stroke-miterlimit:4;stroke-dasharray:none;stroke-opacity:1"
       id="path1250"
       d="m -258.18186,337.00513 c -0.32774,-0.14256 -0.67162,-0.24114 -1.0112,-0.3506 -0.62326,-0.20082 -0.90724,0.68062 -0.28399,0.88141 v 0 c 0.33675,0.10845 0.67702,0.20714 1.00235,0.34771 0.62121,0.20707 0.91405,-0.67146 0.29284,-0.87852 z" />
    <circle
       id="path1252"
       style="fill:#000000;stroke:#000000;stroke-width:0.264583"
       cx="-260.08542"
       cy="336.94687"
       r="0.092511557" />
    <circle
       id="path1254"
       style="fill:#000000;stroke:#000000;stroke-width:0.264583"
       cx="-260.21771"
       cy="336.94687"
       r="0.092511557" />
    <circle
       id="path1256"
       style="fill:#000000;stroke:#000000;stroke-width:0.264583"
       cx="-259.55624"
       cy="337.47604"
       r="0.092511557" />
    <circle
       id="path1258"
       style="fill:#000000;stroke:#000000;stroke-width:0.264583"
       cx="-261.01144"
       cy="337.21146"
       r="0.092511557" />
    <circle
       id="path1260"
       style="fill:#000000;stroke:#000000;stroke-width:0.264583"
       cx="-261.01144"
       cy="337.21146"
       r="0.092511557" />
    <circle
       id="path1262"
       style="fill:#000000;stroke:#000000;stroke-width:0.264583"
       cx="-261.54065"
       cy="336.94687"
       r="0.092511557" />
    <path
       style="fill:#000000;fill-opacity:1;stroke:#000000;stroke-width:3;stroke-miterlimit:4;stroke-dasharray:none;stroke-opacity:1"
       id="path1270"
       d="m -259.80803,337.7226 c 0.13578,0.0692 0.26723,0.14769 0.40738,0.20754 0.88889,0.37965 1.847,0.62373 2.77397,0.8917 0.62907,0.18182 0.8862,-0.70781 0.25712,-0.88961 v 0 c -0.87299,-0.25225 -1.77376,-0.48226 -2.61495,-0.82934 -0.11221,-0.0463 -0.21757,-0.10771 -0.32637,-0.16155 -0.55242,-0.35155 -1.0496,0.42971 -0.49715,0.78126 z" />
    <path
       d="m -144.97885,342.08822 c 0.13578,0.0692 0.26723,0.14769 0.40738,0.20754 0.88889,0.37965 1.847,0.62373 2.77397,0.8917 0.62907,0.18182 0.8862,-0.70781 0.25712,-0.88961 v 0 c -0.87299,-0.25225 -1.77376,-0.48226 -2.61495,-0.82934 -0.11221,-0.0463 -0.21757,-0.10771 -0.32637,-0.16155 -0.55242,-0.35155 -1.0496,0.42971 -0.49715,0.78126 z"
       id="path1272"
       style="fill:#000000;fill-opacity:1;stroke:#000000;stroke-width:3;stroke-miterlimit:4;stroke-dasharray:none;stroke-opacity:1" />
    <path
       d="m 137.82901,396.88138 c 0.2337,0.0692 0.45995,0.14769 0.70118,0.20754 1.52997,0.37965 3.17908,0.62373 4.7746,0.8917 1.08276,0.18182 1.52533,-0.70781 0.44255,-0.88961 v 0 c -1.5026,-0.25225 -3.05301,-0.48226 -4.50088,-0.82934 -0.19314,-0.0463 -0.37449,-0.10771 -0.56175,-0.16155 -0.95084,-0.35155 -1.80659,0.42971 -0.8557,0.78126 z"
       id="path1274"
       style="display:inline;fill:#000000;fill-opacity:1;stroke:#000000;stroke-width:3;stroke-miterlimit:4;stroke-dasharray:none;stroke-opacity:1" />
    <path
       d="m 387.422,341.31888 c 0.13578,0.0692 0.26723,0.14769 0.40738,0.20754 0.88889,0.37965 1.847,0.62373 2.77397,0.8917 0.62907,0.18182 0.8862,-0.70781 0.25712,-0.88961 v 0 c -0.87299,-0.25225 -1.77376,-0.48226 -2.61495,-0.82934 -0.11221,-0.0463 -0.21757,-0.10771 -0.32637,-0.16155 -0.55242,-0.35155 -1.0496,0.42971 -0.49715,0.78126 z"
       id="path1274-3"
       style="display:inline;fill:#000000;fill-opacity:1;stroke:#000000;stroke-width:3;stroke-miterlimit:4;stroke-dasharray:none;stroke-opacity:1" />
    <path
       d="m 465.35124,396.63098 c 0.19705,0.0858 0.38781,0.18032 0.5912,0.25728 1.28997,0.48818 2.68039,0.84924 4.02563,1.23039 0.91291,0.25862 1.28606,-0.59961 0.37313,-0.85822 v 0 c -1.26689,-0.35884 -2.5741,-0.69883 -3.79485,-1.14861 -0.16284,-0.06 -0.31574,-0.13428 -0.47363,-0.2014 -0.80168,-0.419 -1.5232,0.30156 -0.72148,0.72056 z"
       id="path1274-0"
       style="display:inline;fill:#000000;fill-opacity:1;stroke:#000000;stroke-width:3;stroke-miterlimit:4;stroke-dasharray:none;stroke-opacity:1" />
  </g>
</svg>
